<svg width="12" height="12" viewBox="0 0 12 12" fill="none" xmlns="http://www.w3.org/2000/svg">
<path d="M1.5275 5.5H2.5C2.76522 5.5 3.01957 5.60536 3.20711 5.79289C3.39464 5.98043 3.5 6.23478 3.5 6.5V7C3.5 7.26522 3.60536 7.51957 3.79289 7.70711C3.98043 7.89464 4.23478 8 4.5 8C4.76522 8 5.01957 8.10536 5.20711 8.29289C5.39464 8.48043 5.5 8.73478 5.5 9V10.4725M4 1.9675V2.75C4 3.08152 4.1317 3.39946 4.36612 3.63388C4.60054 3.8683 4.91848 4 5.25 4H5.5C5.76522 4 6.01957 4.10536 6.20711 4.29289C6.39464 4.48043 6.5 4.73478 6.5 5C6.5 5.26522 6.60536 5.51957 6.79289 5.70711C6.98043 5.89464 7.23478 6 7.5 6C7.76522 6 8.01957 5.89464 8.20711 5.70711C8.39464 5.51957 8.5 5.26522 8.5 5C8.5 4.73478 8.60536 4.48043 8.79289 4.29289C8.98043 4.10536 9.23478 4 9.5 4H10.032M7.5 10.244V9C7.5 8.73478 7.60536 8.48043 7.79289 8.29289C7.98043 8.10536 8.23478 8 8.5 8H10.032M10.5 6C10.5 6.59095 10.3836 7.17611 10.1575 7.72207C9.93131 8.26804 9.59984 8.76412 9.18198 9.18198C8.76412 9.59984 8.26804 9.93131 7.72207 10.1575C7.17611 10.3836 6.59095 10.5 6 10.5C5.40905 10.5 4.82389 10.3836 4.27792 10.1575C3.73196 9.93131 3.23588 9.59984 2.81802 9.18198C2.40016 8.76412 2.06869 8.26804 1.84254 7.72207C1.6164 7.17611 1.5 6.59095 1.5 6C1.5 4.80653 1.97411 3.66193 2.81802 2.81802C3.66193 1.97411 4.80653 1.5 6 1.5C7.19347 1.5 8.33807 1.97411 9.18198 2.81802C10.0259 3.66193 10.5 4.80653 10.5 6Z" stroke="#CB1D63" stroke-linecap="round" stroke-linejoin="round"/>
</svg>
