<svg width="28" height="28" viewBox="0 0 28 28" fill="none" xmlns="http://www.w3.org/2000/svg">
<path d="M5.5 14.002L7.38889 12.1131M7.38889 12.1131L14 5.50195L20.6111 12.1131M7.38889 12.1131V21.5575C7.38889 21.808 7.48839 22.0482 7.66551 22.2253C7.84263 22.4024 8.08285 22.502 8.33333 22.502H11.1667M20.6111 12.1131L22.5 14.002M20.6111 12.1131V21.5575C20.6111 21.808 20.5116 22.0482 20.3345 22.2253C20.1574 22.4024 19.9171 22.502 19.6667 22.502H16.8333M11.1667 22.502C11.4171 22.502 11.6574 22.4024 11.8345 22.2253C12.0116 22.0482 12.1111 21.808 12.1111 21.5575V17.7797C12.1111 17.5292 12.2106 17.289 12.3877 17.1119C12.5649 16.9348 12.8051 16.8353 13.0556 16.8353H14.9444C15.1949 16.8353 15.4351 16.9348 15.6123 17.1119C15.7894 17.289 15.8889 17.5292 15.8889 17.7797V21.5575C15.8889 21.808 15.9884 22.0482 16.1655 22.2253C16.3426 22.4024 16.5829 22.502 16.8333 22.502M11.1667 22.502H16.8333" stroke="#21201C" stroke-linecap="round" stroke-linejoin="round"/>
</svg>
