<svg width="59" height="56" viewBox="0 0 59 56" fill="none" xmlns="http://www.w3.org/2000/svg">
<mask id="mask0_2043_2524" style="mask-type:alpha" maskUnits="userSpaceOnUse" x="8" y="5" width="43" height="38">
<path d="M25.5241 9.24994C27.2745 6.35959 31.4679 6.35959 33.2184 9.24994L48.0104 33.6743C49.8258 36.6718 47.6676 40.502 44.1632 40.502H14.5792C11.0749 40.502 8.91672 36.6718 10.7321 33.6743L25.5241 9.24994Z" fill="#21201C" stroke="#60B3D7" stroke-width="3"/>
</mask>
<g mask="url(#mask0_2043_2524)">
<path d="M20.0063 16.041L22.5079 17.8189C24.4936 19.2301 27.1902 19.0354 28.9102 17.3567L29.2139 17.0603C29.8566 16.433 30.753 16.1317 31.6536 16.2403L33.3576 16.4458C35.1189 16.6583 36.8495 15.9295 37.9087 14.5294L38.0905 14.2892" stroke="#21201C" stroke-width="2"/>
</g>
<path d="M25.0964 8.98897C27.0414 5.77731 31.701 5.77731 33.6461 8.98897L48.4381 33.4133C50.4552 36.744 48.0571 41 44.1632 41H14.5792C10.6853 41 8.28723 36.744 10.3044 33.4133L25.0964 8.98897Z" stroke="#21201C" stroke-width="2"/>
</svg>
