<svg width="83" height="81" viewBox="0 0 83 81" fill="none" xmlns="http://www.w3.org/2000/svg">
<mask id="mask0_2080_2052" style="mask-type:alpha" maskUnits="userSpaceOnUse" x="15" y="16" width="52" height="46">
<path d="M36.1504 21.216C38.4427 17.4311 43.9339 17.4311 46.2262 21.216L64.4514 51.3093C66.8286 55.2345 64.0025 60.2502 59.4135 60.2502H22.9631C18.3741 60.2502 15.548 55.2345 17.9252 51.3093L36.1504 21.216Z" fill="#21201C" stroke="#60B3D7" stroke-width="3"/>
</mask>
<g mask="url(#mask0_2080_2052)">
<path d="M29.6494 29.7637L32.7316 31.9542C35.1781 33.6929 38.5006 33.453 40.6198 31.3847L40.994 31.0195C41.7859 30.2466 42.8903 29.8754 44 30.0093L46.0995 30.2625C48.2696 30.5242 50.4018 29.6263 51.7069 27.9012L51.9309 27.6052" stroke="#21201C" stroke-width="3"/>
</g>
<path d="M46.2262 21.2141L64.4514 51.3074C66.8286 55.2326 64.0025 60.2482 59.4135 60.2482H22.9631C18.3741 60.2482 15.548 55.2326 17.9252 51.3074L36.1504 21.2141C38.4427 17.4292 43.9339 17.4292 46.2262 21.2141Z" stroke="#21201C" stroke-width="3"/>
</svg>
