<svg width="28" height="28" viewBox="0 0 28 28" fill="none" xmlns="http://www.w3.org/2000/svg">
<path d="M17.7365 9.55903C17.7365 10.561 17.3385 11.5218 16.6301 12.2303C15.9216 12.9388 14.9607 13.3368 13.9588 13.3368C12.9568 13.3368 11.9959 12.9388 11.2875 12.2303C10.579 11.5218 10.181 10.561 10.181 9.55903C10.181 8.5571 10.579 7.59621 11.2875 6.88774C11.9959 6.17926 12.9568 5.78125 13.9588 5.78125C14.9607 5.78125 15.9216 6.17926 16.6301 6.88774C17.3385 7.59621 17.7365 8.5571 17.7365 9.55903ZM13.9588 16.1701C12.2054 16.1701 10.5238 16.8667 9.28401 18.1065C8.04418 19.3463 7.34766 21.0279 7.34766 22.7812H20.5699C20.5699 21.0279 19.8734 19.3463 18.6335 18.1065C17.3937 16.8667 15.7121 16.1701 13.9588 16.1701Z" stroke="#21201C" stroke-linecap="round" stroke-linejoin="round"/>
</svg>
