<svg width="28" height="28" viewBox="0 0 28 28" fill="none" xmlns="http://www.w3.org/2000/svg">
<path d="M17.7365 9.56098C17.7365 10.5629 17.3385 11.5238 16.6301 12.2323C15.9216 12.9407 14.9607 13.3388 13.9588 13.3388C12.9568 13.3388 11.9959 12.9407 11.2875 12.2323C10.579 11.5238 10.181 10.5629 10.181 9.56098C10.181 8.55905 10.579 7.59816 11.2875 6.88969C11.9959 6.18122 12.9568 5.7832 13.9588 5.7832C14.9607 5.7832 15.9216 6.18122 16.6301 6.88969C17.3385 7.59816 17.7365 8.55905 17.7365 9.56098ZM13.9588 16.1721C12.2054 16.1721 10.5238 16.8686 9.28401 18.1084C8.04418 19.3483 7.34766 21.0298 7.34766 22.7832H20.5699C20.5699 21.0298 19.8734 19.3483 18.6335 18.1084C17.3937 16.8686 15.7121 16.1721 13.9588 16.1721Z" stroke="#21201C" stroke-linecap="round" stroke-linejoin="round"/>
</svg>
