<svg width="28" height="28" viewBox="0 0 28 28" fill="none" xmlns="http://www.w3.org/2000/svg">
<path d="M5.55194 13.0575H7.38889C7.88985 13.0575 8.3703 13.2565 8.72454 13.6108C9.07877 13.965 9.27778 14.4454 9.27778 14.9464V15.8908C9.27778 16.3918 9.47678 16.8723 9.83102 17.2265C10.1853 17.5807 10.6657 17.7797 11.1667 17.7797C11.6676 17.7797 12.1481 17.9787 12.5023 18.333C12.8565 18.6872 13.0556 19.1677 13.0556 19.6686V22.45M10.2222 6.38501V7.86306C10.2222 8.48927 10.471 9.08983 10.9138 9.53262C11.3566 9.97542 11.9571 10.2242 12.5833 10.2242H13.0556C13.5565 10.2242 14.037 10.4232 14.3912 10.7774C14.7454 11.1317 14.9444 11.6121 14.9444 12.1131C14.9444 12.614 15.1435 13.0945 15.4977 13.4487C15.8519 13.8029 16.3324 14.002 16.8333 14.002C17.3343 14.002 17.8147 13.8029 18.169 13.4487C18.5232 13.0945 18.7222 12.614 18.7222 12.1131C18.7222 11.6121 18.9212 11.1317 19.2755 10.7774C19.6297 10.4232 20.1101 10.2242 20.6111 10.2242H21.616M16.8333 22.0184V19.6686C16.8333 19.1677 17.0323 18.6872 17.3866 18.333C17.7408 17.9787 18.2213 17.7797 18.7222 17.7797H21.616M22.5 14.002C22.5 15.1182 22.2801 16.2235 21.853 17.2548C21.4258 18.286 20.7997 19.2231 20.0104 20.0124C19.2211 20.8017 18.2841 21.4278 17.2528 21.8549C16.2215 22.2821 15.1162 22.502 14 22.502C12.8838 22.502 11.7785 22.2821 10.7472 21.8549C9.71592 21.4278 8.77889 20.8017 7.98959 20.0124C7.20029 19.2231 6.57419 18.286 6.14702 17.2548C5.71986 16.2235 5.5 15.1182 5.5 14.002C5.5 11.7476 6.39553 9.5856 7.98959 7.99155C9.58365 6.39749 11.7457 5.50195 14 5.50195C16.2543 5.50195 18.4163 6.39749 20.0104 7.99155C21.6045 9.5856 22.5 11.7476 22.5 14.002Z" stroke="black" stroke-linecap="round" stroke-linejoin="round"/>
</svg>
