<svg width="28" height="28" viewBox="0 0 28 28" fill="none" xmlns="http://www.w3.org/2000/svg">
<path d="M5.55194 13.0556H7.38889C7.88985 13.0556 8.3703 13.2546 8.72454 13.6088C9.07877 13.963 9.27778 14.4435 9.27778 14.9444V15.8889C9.27778 16.3899 9.47678 16.8703 9.83102 17.2245C10.1853 17.5788 10.6657 17.7778 11.1667 17.7778C11.6676 17.7778 12.1481 17.9768 12.5023 18.331C12.8565 18.6853 13.0556 19.1657 13.0556 19.6667V22.4481M10.2222 6.38306V7.86111C10.2222 8.48732 10.471 9.08787 10.9138 9.53067C11.3566 9.97346 11.9571 10.2222 12.5833 10.2222H13.0556C13.5565 10.2222 14.037 10.4212 14.3912 10.7755C14.7454 11.1297 14.9444 11.6101 14.9444 12.1111C14.9444 12.6121 15.1435 13.0925 15.4977 13.4468C15.8519 13.801 16.3324 14 16.8333 14C17.3343 14 17.8147 13.801 18.169 13.4468C18.5232 13.0925 18.7222 12.6121 18.7222 12.1111C18.7222 11.6101 18.9212 11.1297 19.2755 10.7755C19.6297 10.4212 20.1101 10.2222 20.6111 10.2222H21.616M16.8333 22.0164V19.6667C16.8333 19.1657 17.0323 18.6853 17.3866 18.331C17.7408 17.9768 18.2213 17.7778 18.7222 17.7778H21.616M22.5 14C22.5 15.1162 22.2801 16.2215 21.853 17.2528C21.4258 18.2841 20.7997 19.2211 20.0104 20.0104C19.2211 20.7997 18.2841 21.4258 17.2528 21.853C16.2215 22.2801 15.1162 22.5 14 22.5C12.8838 22.5 11.7785 22.2801 10.7472 21.853C9.71592 21.4258 8.77889 20.7997 7.98959 20.0104C7.20029 19.2211 6.57419 18.2841 6.14702 17.2528C5.71986 16.2215 5.5 15.1162 5.5 14C5.5 11.7457 6.39553 9.58365 7.98959 7.98959C9.58365 6.39553 11.7457 5.5 14 5.5C16.2543 5.5 18.4163 6.39553 20.0104 7.98959C21.6045 9.58365 22.5 11.7457 22.5 14Z" stroke="#21201C" stroke-linecap="round" stroke-linejoin="round"/>
</svg>
