<svg width="82" height="80" viewBox="0 0 82 80" fill="none" xmlns="http://www.w3.org/2000/svg">
<mask id="mask0_3330_3839" style="mask-type:alpha" maskUnits="userSpaceOnUse" x="15" y="16" width="51" height="45">
<path d="M35.7048 20.955C37.9688 17.2167 43.3925 17.2167 45.6565 20.955L63.6569 50.6776C66.0048 54.5545 63.2134 59.5082 58.6811 59.5082H22.6802C18.1479 59.5082 15.3565 54.5545 17.7044 50.6777L35.7048 20.955Z" fill="#21201C" stroke="#60B3D7" stroke-width="2.96302"/>
</mask>
<g mask="url(#mask0_3330_3839)">
<path d="M29.2849 29.3984L32.329 31.5619C34.7454 33.2792 38.027 33.0423 40.1201 30.9994L40.4895 30.6388C41.2717 29.8754 42.3625 29.5088 43.4586 29.641L45.532 29.8911C47.6754 30.1496 49.7814 29.2627 51.0704 27.5589L51.2915 27.2666" stroke="#FDFDFC" stroke-width="2.96302"/>
</g>
<path d="M35.7045 20.9531C37.9684 17.2147 43.3921 17.2147 45.6561 20.9531L63.6565 50.6757C66.0044 54.5525 63.2131 59.5063 58.6807 59.5063H22.6798C18.1475 59.5063 15.3562 54.5525 17.704 50.6757L35.7045 20.9531Z" stroke="#FDFDFC" stroke-width="2.96302"/>
</svg>
