<svg width="32" height="32" viewBox="0 0 32 32" fill="none" xmlns="http://www.w3.org/2000/svg">
<path d="M10.6676 9.33333V4M21.3343 9.33333V4M9.33431 14.6667H22.6676M6.66764 28H25.3343C26.0416 28 26.7198 27.719 27.2199 27.219C27.72 26.7189 28.001 26.0406 28.001 25.3333V9.33333C28.001 8.62609 27.72 7.94781 27.2199 7.44772C26.7198 6.94762 26.0416 6.66667 25.3343 6.66667H6.66764C5.9604 6.66667 5.28212 6.94762 4.78203 7.44772C4.28193 7.94781 4.00098 8.62609 4.00098 9.33333V25.3333C4.00098 26.0406 4.28193 26.7189 4.78203 27.219C5.28212 27.719 5.9604 28 6.66764 28Z" stroke="#8145B5" stroke-width="2" stroke-linecap="round" stroke-linejoin="round"/>
</svg>
