<svg width="21" height="20" viewBox="0 0 21 20" fill="none" xmlns="http://www.w3.org/2000/svg">
<path d="M3.5 3H5.05556L5.36667 4.55556M5.36667 4.55556H17.5L14.3889 10.7778H6.61111M5.36667 4.55556L6.61111 10.7778M6.61111 10.7778L4.82767 12.5612C4.33767 13.0512 4.68456 13.8889 5.37756 13.8889H14.3889M14.3889 13.8889C13.9763 13.8889 13.5807 14.0528 13.2889 14.3445C12.9972 14.6362 12.8333 15.0319 12.8333 15.4444C12.8333 15.857 12.9972 16.2527 13.2889 16.5444C13.5807 16.8361 13.9763 17 14.3889 17C14.8014 17 15.1971 16.8361 15.4888 16.5444C15.7806 16.2527 15.9444 15.857 15.9444 15.4444C15.9444 15.0319 15.7806 14.6362 15.4888 14.3445C15.1971 14.0528 14.8014 13.8889 14.3889 13.8889ZM8.16667 15.4444C8.16667 15.857 8.00278 16.2527 7.71105 16.5444C7.41933 16.8361 7.02367 17 6.61111 17C6.19855 17 5.80289 16.8361 5.51117 16.5444C5.21944 16.2527 5.05556 15.857 5.05556 15.4444C5.05556 15.0319 5.21944 14.6362 5.51117 14.3445C5.80289 14.0528 6.19855 13.8889 6.61111 13.8889C7.02367 13.8889 7.41933 14.0528 7.71105 14.3445C8.00278 14.6362 8.16667 15.0319 8.16667 15.4444Z" stroke="#FDFDFC" stroke-linecap="round" stroke-linejoin="round"/>
</svg>
