<svg width="64" height="26" viewBox="0 0 64 26" fill="none" xmlns="http://www.w3.org/2000/svg">
<rect x="26.0879" width="4" height="5.93919" transform="rotate(11 26.0879 0)" fill="#FFBA18"/>
<rect x="11.9222" y="6" width="4" height="9" transform="rotate(-30 11.9222 6)" fill="#74DAF8"/>
<rect x="5.45459" y="10.2793" width="4" height="9" transform="rotate(-4 5.45459 10.2793)" fill="#DF3478"/>
<rect x="3.00037" width="4" height="5.98158" transform="rotate(20 3.00037 0)" fill="#8E4EC6"/>
<rect x="24.0004" y="15" width="4" height="9" transform="rotate(20 24.0004 15)" fill="#0588F0"/>
<rect x="50.3588" y="17" width="4" height="8.0101" transform="rotate(11 50.3588 17)" fill="#FFBA18"/>
<rect x="55.4546" y="12" width="4" height="9" transform="rotate(-30 55.4546 12)" fill="#74DAF8"/>
<rect x="48.0144" y="0.279297" width="4" height="9.05603" transform="rotate(-4 48.0144 0.279297)" fill="#DF3478"/>
<rect x="39.0925" y="8" width="4" height="9" transform="rotate(20 39.0925 8)" fill="#8E4EC6"/>
<rect x="56.8303" y="2.16016" width="4" height="6.45446" transform="rotate(-32.6741 56.8303 2.16016)" fill="#0588F0"/>
</svg>
