<svg width="20" height="20" viewBox="0 0 20 20" fill="none" xmlns="http://www.w3.org/2000/svg">
<path fill-rule="evenodd" clip-rule="evenodd" d="M4.29303 4.29357C4.48056 4.1061 4.73487 4.00078 5.00003 4.00078C5.26519 4.00078 5.5195 4.1061 5.70703 4.29357L10 8.58657L14.293 4.29357C14.3853 4.19806 14.4956 4.12188 14.6176 4.06947C14.7396 4.01706 14.8709 3.98947 15.0036 3.98832C15.1364 3.98717 15.2681 4.01247 15.391 4.06275C15.5139 4.11303 15.6255 4.18728 15.7194 4.28117C15.8133 4.37507 15.8876 4.48672 15.9379 4.60962C15.9881 4.73251 16.0134 4.86419 16.0123 4.99697C16.0111 5.12975 15.9835 5.26097 15.9311 5.38297C15.8787 5.50498 15.8025 5.61532 15.707 5.70757L11.414 10.0006L15.707 14.2936C15.8892 14.4822 15.99 14.7348 15.9877 14.997C15.9854 15.2592 15.8803 15.51 15.6948 15.6954C15.5094 15.8808 15.2586 15.986 14.9964 15.9882C14.7342 15.9905 14.4816 15.8897 14.293 15.7076L10 11.4146L5.70703 15.7076C5.51843 15.8897 5.26583 15.9905 5.00363 15.9882C4.74143 15.986 4.49062 15.8808 4.30521 15.6954C4.1198 15.51 4.01463 15.2592 4.01236 14.997C4.01008 14.7348 4.11087 14.4822 4.29303 14.2936L8.58603 10.0006L4.29303 5.70757C4.10556 5.52004 4.00024 5.26573 4.00024 5.00057C4.00024 4.73541 4.10556 4.4811 4.29303 4.29357Z" fill="#21201C"/>
</svg>
