<svg width="33" height="32" viewBox="0 0 33 32" fill="none" xmlns="http://www.w3.org/2000/svg">
<path d="M23.8756 24.878C21.8752 26.8784 19.162 28.0022 16.333 28.0022C13.5039 28.0022 10.7907 26.8784 8.79029 24.878C6.78985 22.8775 5.66602 20.1643 5.66602 17.3353C5.66602 14.5062 6.78985 11.7931 8.79029 9.79262C8.79029 9.79262 9.66629 12.002 12.333 13.3353C12.333 10.6686 12.9996 6.66862 16.3143 4.00195C18.9996 6.66862 21.7863 7.70462 23.8743 9.79262C24.8665 10.7819 25.6534 11.9576 26.1897 13.252C26.7261 14.5465 27.0013 15.9341 26.9996 17.3353C27.0015 18.7363 26.7265 20.124 26.1903 21.4184C25.6542 22.7128 24.8676 23.8885 23.8756 24.878Z" stroke="#CC4E00" stroke-width="2" stroke-linecap="round" stroke-linejoin="round"/>
<path d="M13.505 21.496C13.9695 21.9606 14.5413 22.3037 15.1699 22.4948C15.7985 22.686 16.4645 22.7194 17.1091 22.5921C17.7536 22.4647 18.3569 22.1806 18.8656 21.7647C19.3742 21.3489 19.7726 20.8141 20.0255 20.2078C20.2785 19.6014 20.3781 18.942 20.3157 18.288C20.2533 17.6339 20.0308 17.0053 19.6677 16.4577C19.3047 15.9101 18.8124 15.4604 18.2343 15.1482C17.6561 14.8361 17.01 14.6711 16.353 14.668L14.9997 18.668H12.333C12.333 19.692 12.7237 20.716 13.505 21.496Z" stroke="#CC4E00" stroke-width="2" stroke-linecap="round" stroke-linejoin="round"/>
</svg>
