<svg width="17" height="17" viewBox="0 0 17 17" fill="none" xmlns="http://www.w3.org/2000/svg">
<path d="M11.1074 3.32279C13.2022 4.25885 14.6621 6.36071 14.6621 8.80355C14.6621 12.1173 11.9758 14.8035 8.66211 14.8035C5.3484 14.8035 2.66211 12.1173 2.66211 8.80355C2.66211 7.19478 3.29526 5.7339 4.32597 4.6565C4.88342 5.43498 5.62246 6.07457 6.48117 6.51336C6.51398 4.49469 7.46063 2.69819 8.92546 1.51953C9.48068 2.26408 10.2169 2.88977 11.1074 3.32279Z" stroke="#FBFEFD" stroke-width="1.28703" stroke-linecap="round" stroke-linejoin="round"/>
<path d="M8.66211 12.622C10.1683 12.622 11.3894 11.401 11.3894 9.89474C11.3894 8.51052 10.3581 7.36716 9.02203 7.19101C8.2887 7.84886 7.77934 8.75135 7.62233 9.7701C7.05316 9.63096 6.52778 9.38019 6.07071 9.04229C5.98254 9.31048 5.93484 9.59704 5.93484 9.89474C5.93484 11.401 7.15588 12.622 8.66211 12.622Z" stroke="#FBFEFD" stroke-width="1.28703" stroke-linecap="round" stroke-linejoin="round"/>
</svg>
