<svg width="48" height="48" viewBox="0 0 48 48" fill="none" xmlns="http://www.w3.org/2000/svg">
<path d="M6.11 22H10C11.0609 22 12.0783 22.4214 12.8284 23.1716C13.5786 23.9217 14 24.9391 14 26V28C14 29.0609 14.4214 30.0783 15.1716 30.8284C15.9217 31.5786 16.9391 32 18 32C19.0609 32 20.0783 32.4214 20.8284 33.1716C21.5786 33.9217 22 34.9391 22 36V41.89M16 7.87V11C16 12.3261 16.5268 13.5979 17.4645 14.5355C18.4021 15.4732 19.6739 16 21 16H22C23.0609 16 24.0783 16.4214 24.8284 17.1716C25.5786 17.9217 26 18.9391 26 20C26 21.0609 26.4214 22.0783 27.1716 22.8284C27.9217 23.5786 28.9391 24 30 24C31.0609 24 32.0783 23.5786 32.8284 22.8284C33.5786 22.0783 34 21.0609 34 20C34 18.9391 34.4214 17.9217 35.1716 17.1716C35.9217 16.4214 36.9391 16 38 16H40.128M30 40.976V36C30 34.9391 30.4214 33.9217 31.1716 33.1716C31.9217 32.4214 32.9391 32 34 32H40.128M42 24C42 26.3638 41.5344 28.7044 40.6298 30.8883C39.7252 33.0722 38.3994 35.0565 36.7279 36.7279C35.0565 38.3994 33.0722 39.7252 30.8883 40.6298C28.7044 41.5344 26.3638 42 24 42C21.6362 42 19.2956 41.5344 17.1117 40.6298C14.9278 39.7252 12.9435 38.3994 11.2721 36.7279C9.60062 35.0565 8.27475 33.0722 7.37017 30.8883C6.46558 28.7044 6 26.3638 6 24C6 19.2261 7.89642 14.6477 11.2721 11.2721C14.6477 7.89642 19.2261 6 24 6C28.7739 6 33.3523 7.89642 36.7279 11.2721C40.1036 14.6477 42 19.2261 42 24Z" stroke="#CB1D63" stroke-width="3" stroke-linecap="round" stroke-linejoin="round"/>
</svg>
