<svg width="33" height="32" viewBox="0 0 33 32" fill="none" xmlns="http://www.w3.org/2000/svg">
<path d="M4.57333 14.6686H7.16667C7.87391 14.6686 8.55219 14.9496 9.05229 15.4497C9.55238 15.9498 9.83333 16.628 9.83333 17.3353V18.6686C9.83333 19.3759 10.1143 20.0541 10.6144 20.5542C11.1145 21.0543 11.7928 21.3353 12.5 21.3353C13.2072 21.3353 13.8855 21.6162 14.3856 22.1163C14.8857 22.6164 15.1667 23.2947 15.1667 24.002V27.9286M11.1667 5.24862V7.33529C11.1667 8.21934 11.5179 9.06719 12.143 9.69231C12.7681 10.3174 13.6159 10.6686 14.5 10.6686H15.1667C15.8739 10.6686 16.5522 10.9496 17.0523 11.4497C17.5524 11.9498 17.8333 12.628 17.8333 13.3353C17.8333 14.0425 18.1143 14.7208 18.6144 15.2209C19.1145 15.721 19.7928 16.002 20.5 16.002C21.2072 16.002 21.8855 15.721 22.3856 15.2209C22.8857 14.7208 23.1667 14.0425 23.1667 13.3353C23.1667 12.628 23.4476 11.9498 23.9477 11.4497C24.4478 10.9496 25.1261 10.6686 25.8333 10.6686H27.252M20.5 27.3193V24.002C20.5 23.2947 20.781 22.6164 21.281 22.1163C21.7811 21.6162 22.4594 21.3353 23.1667 21.3353H27.252M28.5 16.002C28.5 17.5778 28.1896 19.1382 27.5866 20.5942C26.9835 22.0501 26.0996 23.3729 24.9853 24.4872C23.871 25.6015 22.5481 26.4855 21.0922 27.0885C19.6363 27.6916 18.0759 28.002 16.5 28.002C14.9241 28.002 13.3637 27.6916 11.9078 27.0885C10.4519 26.4855 9.12902 25.6015 8.01472 24.4872C6.90042 23.3729 6.0165 22.0501 5.41345 20.5942C4.81039 19.1382 4.5 17.5778 4.5 16.002C4.5 12.8194 5.76428 9.76711 8.01472 7.51667C10.2652 5.26624 13.3174 4.00195 16.5 4.00195C19.6826 4.00195 22.7348 5.26624 24.9853 7.51667C27.2357 9.76711 28.5 12.8194 28.5 16.002Z" stroke="#CE2C31" stroke-width="2" stroke-linecap="round" stroke-linejoin="round"/>
</svg>
