<svg width="28" height="28" viewBox="0 0 28 28" fill="none" xmlns="http://www.w3.org/2000/svg">
<path d="M5.5 14L7.38889 12.1111M7.38889 12.1111L14 5.5L20.6111 12.1111M7.38889 12.1111V21.5556C7.38889 21.806 7.48839 22.0463 7.66551 22.2234C7.84263 22.4005 8.08285 22.5 8.33333 22.5H11.1667M20.6111 12.1111L22.5 14M20.6111 12.1111V21.5556C20.6111 21.806 20.5116 22.0463 20.3345 22.2234C20.1574 22.4005 19.9171 22.5 19.6667 22.5H16.8333M11.1667 22.5C11.4171 22.5 11.6574 22.4005 11.8345 22.2234C12.0116 22.0463 12.1111 21.806 12.1111 21.5556V17.7778C12.1111 17.5273 12.2106 17.2871 12.3877 17.11C12.5649 16.9328 12.8051 16.8333 13.0556 16.8333H14.9444C15.1949 16.8333 15.4351 16.9328 15.6123 17.11C15.7894 17.2871 15.8889 17.5273 15.8889 17.7778V21.5556C15.8889 21.806 15.9884 22.0463 16.1655 22.2234C16.3426 22.4005 16.5829 22.5 16.8333 22.5M11.1667 22.5H16.8333" stroke="#21201C" stroke-linecap="round" stroke-linejoin="round"/>
</svg>
