<svg width="146" height="130" viewBox="0 0 146 130" fill="none" xmlns="http://www.w3.org/2000/svg">
<mask id="mask0_4282_5170" style="mask-type:alpha" maskUnits="userSpaceOnUse" x="27" y="16" width="92" height="80">
<path d="M64.1271 23.7573C68.1644 17.0909 77.8361 17.0909 81.8733 23.7572L113.972 76.7599C118.159 83.6733 113.182 92.507 105.099 92.507H40.9011C32.8188 92.507 27.8412 83.6733 32.028 76.7599L64.1271 23.7573Z" fill="#21201C" stroke="#60B3D7" stroke-width="5.28379"/>
</mask>
<g mask="url(#mask0_4282_5170)">
<path d="M52.6787 38.8145L58.1071 42.6724C62.4161 45.7349 68.268 45.3124 72.0004 41.6694L72.6593 41.0264C74.054 39.6651 75.9993 39.0113 77.9538 39.247L81.6512 39.693C85.4734 40.1539 89.2289 38.5725 91.5276 35.5341L91.9219 35.0128" stroke="#21201C" stroke-width="5.28379"/>
</g>
<path d="M64.1266 23.7534C68.1639 17.087 77.8356 17.087 81.8728 23.7533L113.972 76.756C118.159 83.6694 113.181 92.5031 105.099 92.5031H40.9006C32.8183 92.5031 27.8407 83.6694 32.0275 76.756L64.1266 23.7534Z" stroke="#21201C" stroke-width="5.28379"/>
</svg>
