<svg width="32" height="33" viewBox="0 0 32 33" fill="none" xmlns="http://www.w3.org/2000/svg">
<path d="M17.0239 27.7521V25.8226L24.1127 18.7337L25.9863 19.3489H17.0799V17.2656H27.0069V19.1812L19.9182 26.284L18.3102 25.6548H27.0489V27.7521H17.0239Z" fill="#21201C"/>
<path d="M8.3532 18.4401H10.9958V27.7521H8.3532V18.4401ZM4.27051 17.2656H15.0784V19.6006H4.27051V17.2656Z" fill="#21201C"/>
<path d="M21.5324 16.1369V11.0614H24.175V16.1369H21.5324ZM16.6108 5.65039H19.533L23.4479 10.628H22.2315L26.1464 5.65039H29.0686L23.6996 12.4736L21.9938 12.5015L16.6108 5.65039Z" fill="#21201C"/>
<path d="M13.7603 14.3332L12.9074 14.487V5.65039H15.4661V16.1369H12.1384L5.74875 7.30026L6.60164 7.14646V16.1369H4.04297V5.65039H7.46851L13.7603 14.3332Z" fill="#21201C"/>
<path d="M6.94027 1.79715C6.79472 1.79715 6.66697 1.77074 6.557 1.71791C6.44812 1.66508 6.36295 1.59123 6.3015 1.49636C6.24112 1.40149 6.21094 1.29044 6.21094 1.16322C6.21094 1.03601 6.24112 0.924962 6.3015 0.830089C6.36295 0.735215 6.44812 0.661365 6.557 0.608538C6.66697 0.55571 6.79472 0.529297 6.94027 0.529297C7.08581 0.529297 7.21302 0.55571 7.32191 0.608538C7.43187 0.661365 7.51704 0.735215 7.57742 0.830089C7.63887 0.924962 7.66959 1.03601 7.66959 1.16322C7.66959 1.29044 7.63887 1.40149 7.57742 1.49636C7.51704 1.59123 7.43187 1.66508 7.32191 1.71791C7.21302 1.77074 7.08581 1.79715 6.94027 1.79715ZM6.94027 1.4624C7.0125 1.4624 7.07449 1.45054 7.12624 1.42682C7.17906 1.40202 7.21949 1.36752 7.24752 1.32332C7.27555 1.27804 7.28957 1.22468 7.28957 1.16322C7.28957 1.10177 7.27555 1.04894 7.24752 1.00474C7.21949 0.959461 7.17906 0.924962 7.12624 0.901244C7.07449 0.876447 7.0125 0.864049 6.94027 0.864049C6.86803 0.864049 6.8055 0.876447 6.75268 0.901244C6.70093 0.924962 6.66104 0.959461 6.63301 1.00474C6.60498 1.04894 6.59096 1.10177 6.59096 1.16322C6.59096 1.22468 6.60498 1.27804 6.63301 1.32332C6.66104 1.36752 6.70093 1.40202 6.75268 1.42682C6.8055 1.45054 6.86803 1.4624 6.94027 1.4624Z" fill="#21201C"/>
<path d="M5.67529 0.556641H6.05209V1.76951H5.67529V0.556641Z" fill="#21201C"/>
<path d="M4.78681 0.556641C4.93235 0.556641 5.05957 0.581976 5.16846 0.632647C5.27842 0.68224 5.36359 0.752317 5.42396 0.842878C5.48541 0.933439 5.51614 1.04017 5.51614 1.16308C5.51614 1.2849 5.48541 1.39163 5.42396 1.48327C5.36359 1.57383 5.27842 1.64445 5.16846 1.69512C5.05957 1.74471 4.93235 1.76951 4.78681 1.76951H4.1626V0.556641H4.78681ZM4.53616 1.60618L4.36312 1.43476H4.81592C4.88168 1.43476 4.93828 1.42398 4.98572 1.40242C5.03423 1.37978 5.07143 1.34797 5.0973 1.307C5.12318 1.26603 5.13611 1.21806 5.13611 1.16308C5.13611 1.10701 5.12318 1.05904 5.0973 1.01915C5.07143 0.97818 5.03423 0.946915 4.98572 0.925353C4.93828 0.902713 4.88168 0.891393 4.81592 0.891393H4.36312L4.53616 0.719974V1.60618Z" fill="#21201C"/>
<path d="M3.09408 1.21968C3.09408 1.27035 3.10324 1.31347 3.12157 1.34905C3.1399 1.38463 3.16739 1.41266 3.20404 1.43314C3.2407 1.45255 3.28652 1.46225 3.3415 1.46225C3.39864 1.46225 3.44554 1.45255 3.48219 1.43314C3.51885 1.41374 3.5458 1.38624 3.56305 1.35067C3.58137 1.31401 3.59054 1.27035 3.59054 1.21968V0.556641H3.96733V1.2407C3.96733 1.35174 3.94146 1.44931 3.88971 1.53341C3.83796 1.61642 3.76519 1.68111 3.6714 1.72746C3.5776 1.77382 3.46764 1.797 3.3415 1.797C3.21752 1.797 3.10863 1.77382 3.01484 1.72746C2.92104 1.68111 2.84773 1.61642 2.79491 1.53341C2.74316 1.44931 2.71729 1.35174 2.71729 1.2407V0.556641H3.09408V1.21968Z" fill="#21201C"/>
<path d="M1.76939 0.719974H2.14618V1.76951H1.76939V0.719974ZM1.31982 0.556641H2.59574V0.891393H1.31982V0.556641Z" fill="#21201C"/>
<path d="M0 1.37184H0.381644C0.385956 1.39987 0.399432 1.42466 0.422072 1.44623C0.44579 1.46671 0.477594 1.48288 0.517483 1.49474C0.557373 1.50552 0.60427 1.51091 0.658174 1.51091C0.732562 1.51091 0.79024 1.50229 0.831208 1.48504C0.873253 1.46779 0.894276 1.44138 0.894276 1.4058C0.894276 1.381 0.882417 1.36106 0.858699 1.34596C0.834981 1.32979 0.788084 1.31901 0.718008 1.31362L0.504546 1.29583C0.329896 1.28289 0.20322 1.24516 0.124519 1.18263C0.0468969 1.11902 0.00808567 1.03385 0.00808567 0.927118C0.00808567 0.839792 0.0334208 0.767019 0.0840911 0.708802C0.134761 0.649506 0.205376 0.604764 0.295936 0.574577C0.386495 0.54439 0.493226 0.529297 0.616129 0.529297C0.734719 0.529297 0.839832 0.546008 0.93147 0.579429C1.02419 0.61285 1.0975 0.660287 1.1514 0.721739C1.20638 0.782113 1.23657 0.852729 1.24196 0.933587H0.860316C0.856004 0.909868 0.843606 0.889385 0.823122 0.872135C0.803716 0.853807 0.775686 0.839792 0.739031 0.830089C0.702376 0.820386 0.658713 0.815534 0.608043 0.815534C0.541201 0.815534 0.487836 0.82362 0.447947 0.839792C0.409135 0.855963 0.38973 0.880221 0.38973 0.912564C0.38973 0.936282 0.40105 0.955688 0.423689 0.970782C0.447408 0.985875 0.490531 0.996117 0.55306 1.00151L0.787545 1.02091C0.903979 1.02954 0.997773 1.04787 1.06893 1.0759C1.14116 1.10285 1.19345 1.14004 1.22579 1.18748C1.25813 1.23384 1.2743 1.2926 1.2743 1.36375C1.2743 1.45 1.24843 1.52601 1.19668 1.59177C1.14493 1.65646 1.07216 1.70713 0.978367 1.74378C0.885651 1.77936 0.776764 1.79715 0.651706 1.79715C0.523413 1.79715 0.410752 1.77936 0.313724 1.74378C0.216696 1.70821 0.140691 1.65861 0.0857082 1.59501C0.0307256 1.53032 0.00215618 1.45593 0 1.37184Z" fill="#21201C"/>
<path d="M14.6102 1.79715C14.4646 1.79715 14.3369 1.77074 14.2269 1.71791C14.118 1.66508 14.0329 1.59123 13.9714 1.49636C13.911 1.40149 13.8809 1.29044 13.8809 1.16322C13.8809 1.03601 13.911 0.924962 13.9714 0.830089C14.0329 0.735215 14.118 0.661365 14.2269 0.608538C14.3369 0.55571 14.4646 0.529297 14.6102 0.529297C14.7557 0.529297 14.8829 0.55571 14.9918 0.608538C15.1018 0.661365 15.187 0.735215 15.2473 0.830089C15.3088 0.924962 15.3395 1.03601 15.3395 1.16322C15.3395 1.29044 15.3088 1.40149 15.2473 1.49636C15.187 1.59123 15.1018 1.66508 14.9918 1.71791C14.8829 1.77074 14.7557 1.79715 14.6102 1.79715ZM14.6102 1.4624C14.6824 1.4624 14.7444 1.45054 14.7962 1.42682C14.849 1.40202 14.8894 1.36752 14.9174 1.32332C14.9455 1.27804 14.9595 1.22468 14.9595 1.16322C14.9595 1.10177 14.9455 1.04894 14.9174 1.00474C14.8894 0.959461 14.849 0.924962 14.7962 0.901244C14.7444 0.876447 14.6824 0.864049 14.6102 0.864049C14.538 0.864049 14.4754 0.876447 14.4226 0.901244C14.3709 0.924962 14.331 0.959461 14.3029 1.00474C14.2749 1.04894 14.2609 1.10177 14.2609 1.16322C14.2609 1.22468 14.2749 1.27804 14.3029 1.32332C14.331 1.36752 14.3709 1.40202 14.4226 1.42682C14.4754 1.45054 14.538 1.4624 14.6102 1.4624Z" fill="#21201C"/>
<path d="M13.3447 0.556641H13.7215V1.76951H13.3447V0.556641Z" fill="#21201C"/>
<path d="M12.4562 0.556641C12.6018 0.556641 12.729 0.581976 12.8379 0.632647C12.9479 0.68224 13.033 0.752317 13.0934 0.842878C13.1548 0.933439 13.1856 1.04017 13.1856 1.16308C13.1856 1.2849 13.1548 1.39163 13.0934 1.48327C13.033 1.57383 12.9479 1.64445 12.8379 1.69512C12.729 1.74471 12.6018 1.76951 12.4562 1.76951H11.832V0.556641H12.4562ZM12.2056 1.60618L12.0326 1.43476H12.4854C12.5511 1.43476 12.6077 1.42398 12.6552 1.40242C12.7037 1.37978 12.7409 1.34797 12.7667 1.307C12.7926 1.26603 12.8055 1.21806 12.8055 1.16308C12.8055 1.10701 12.7926 1.05904 12.7667 1.01915C12.7409 0.97818 12.7037 0.946915 12.6552 0.925353C12.6077 0.902713 12.5511 0.891393 12.4854 0.891393H12.0326L12.2056 0.719974V1.60618Z" fill="#21201C"/>
<path d="M10.764 1.21968C10.764 1.27035 10.7732 1.31347 10.7915 1.34905C10.8098 1.38463 10.8373 1.41266 10.874 1.43314C10.9106 1.45255 10.9564 1.46225 11.0114 1.46225C11.0686 1.46225 11.1155 1.45255 11.1521 1.43314C11.1888 1.41374 11.2157 1.38624 11.233 1.35067C11.2513 1.31401 11.2605 1.27035 11.2605 1.21968V0.556641H11.6373V1.2407C11.6373 1.35174 11.6114 1.44931 11.5596 1.53341C11.5079 1.61642 11.4351 1.68111 11.3413 1.72746C11.2475 1.77382 11.1376 1.797 11.0114 1.797C10.8874 1.797 10.7786 1.77382 10.6848 1.72746C10.591 1.68111 10.5177 1.61642 10.4648 1.53341C10.4131 1.44931 10.3872 1.35174 10.3872 1.2407V0.556641H10.764V1.21968Z" fill="#21201C"/>
<path d="M9.43931 0.719974H9.8161V1.76951H9.43931V0.719974ZM8.98975 0.556641H10.2657V0.891393H8.98975V0.556641Z" fill="#21201C"/>
<path d="M7.66992 1.37184H8.05157C8.05588 1.39987 8.06935 1.42466 8.09199 1.44623C8.11571 1.46671 8.14752 1.48288 8.18741 1.49474C8.22729 1.50552 8.27419 1.51091 8.3281 1.51091C8.40248 1.51091 8.46016 1.50229 8.50113 1.48504C8.54318 1.46779 8.5642 1.44138 8.5642 1.4058C8.5642 1.381 8.55234 1.36106 8.52862 1.34596C8.5049 1.32979 8.45801 1.31901 8.38793 1.31362L8.17447 1.29583C7.99982 1.28289 7.87314 1.24516 7.79444 1.18263C7.71682 1.11902 7.67801 1.03385 7.67801 0.927118C7.67801 0.839792 7.70334 0.767019 7.75401 0.708802C7.80468 0.649506 7.8753 0.604764 7.96586 0.574577C8.05642 0.54439 8.16315 0.529297 8.28605 0.529297C8.40464 0.529297 8.50975 0.546008 8.60139 0.579429C8.69411 0.61285 8.76742 0.660287 8.82132 0.721739C8.8763 0.782113 8.90649 0.852729 8.91188 0.933587H8.53024C8.52593 0.909868 8.51353 0.889385 8.49304 0.872135C8.47364 0.853807 8.44561 0.839792 8.40895 0.830089C8.3723 0.820386 8.32864 0.815534 8.27796 0.815534C8.21112 0.815534 8.15776 0.82362 8.11787 0.839792C8.07906 0.855963 8.05965 0.880221 8.05965 0.912564C8.05965 0.936282 8.07097 0.955688 8.09361 0.970782C8.11733 0.985875 8.16045 0.996117 8.22298 1.00151L8.45747 1.02091C8.5739 1.02954 8.66769 1.04787 8.73885 1.0759C8.81108 1.10285 8.86337 1.14004 8.89571 1.18748C8.92805 1.23384 8.94422 1.2926 8.94422 1.36375C8.94422 1.45 8.91835 1.52601 8.8666 1.59177C8.81485 1.65646 8.74208 1.70713 8.64829 1.74378C8.55557 1.77936 8.44669 1.79715 8.32163 1.79715C8.19333 1.79715 8.08067 1.77936 7.98365 1.74378C7.88662 1.70821 7.81061 1.65861 7.75563 1.59501C7.70065 1.53032 7.67208 1.45593 7.66992 1.37184Z" fill="#21201C"/>
<path d="M22.2796 1.79715C22.1341 1.79715 22.0063 1.77074 21.8964 1.71791C21.7875 1.66508 21.7023 1.59123 21.6409 1.49636C21.5805 1.40149 21.5503 1.29044 21.5503 1.16322C21.5503 1.03601 21.5805 0.924962 21.6409 0.830089C21.7023 0.735215 21.7875 0.661365 21.8964 0.608538C22.0063 0.55571 22.1341 0.529297 22.2796 0.529297C22.4252 0.529297 22.5524 0.55571 22.6613 0.608538C22.7712 0.661365 22.8564 0.735215 22.9168 0.830089C22.9782 0.924962 23.0089 1.03601 23.0089 1.16322C23.0089 1.29044 22.9782 1.40149 22.9168 1.49636C22.8564 1.59123 22.7712 1.66508 22.6613 1.71791C22.5524 1.77074 22.4252 1.79715 22.2796 1.79715ZM22.2796 1.4624C22.3519 1.4624 22.4138 1.45054 22.4656 1.42682C22.5184 1.40202 22.5588 1.36752 22.5869 1.32332C22.6149 1.27804 22.6289 1.22468 22.6289 1.16322C22.6289 1.10177 22.6149 1.04894 22.5869 1.00474C22.5588 0.959461 22.5184 0.924962 22.4656 0.901244C22.4138 0.876447 22.3519 0.864049 22.2796 0.864049C22.2074 0.864049 22.1449 0.876447 22.092 0.901244C22.0403 0.924962 22.0004 0.959461 21.9724 1.00474C21.9443 1.04894 21.9303 1.10177 21.9303 1.16322C21.9303 1.22468 21.9443 1.27804 21.9724 1.32332C22.0004 1.36752 22.0403 1.40202 22.092 1.42682C22.1449 1.45054 22.2074 1.4624 22.2796 1.4624Z" fill="#21201C"/>
<path d="M21.0146 0.556641H21.3914V1.76951H21.0146V0.556641Z" fill="#21201C"/>
<path d="M20.1257 0.556641C20.2712 0.556641 20.3984 0.581976 20.5073 0.632647C20.6173 0.68224 20.7025 0.752317 20.7628 0.842878C20.8243 0.933439 20.855 1.04017 20.855 1.16308C20.855 1.2849 20.8243 1.39163 20.7628 1.48327C20.7025 1.57383 20.6173 1.64445 20.5073 1.69512C20.3984 1.74471 20.2712 1.76951 20.1257 1.76951H19.5015V0.556641H20.1257ZM19.875 1.60618L19.702 1.43476H20.1548C20.2206 1.43476 20.2772 1.42398 20.3246 1.40242C20.3731 1.37978 20.4103 1.34797 20.4362 1.307C20.462 1.26603 20.475 1.21806 20.475 1.16308C20.475 1.10701 20.462 1.05904 20.4362 1.01915C20.4103 0.97818 20.3731 0.946915 20.3246 0.925353C20.2772 0.902713 20.2206 0.891393 20.1548 0.891393H19.702L19.875 0.719974V1.60618Z" fill="#21201C"/>
<path d="M18.4334 1.21968C18.4334 1.27035 18.4426 1.31347 18.4609 1.34905C18.4793 1.38463 18.5067 1.41266 18.5434 1.43314C18.5801 1.45255 18.6259 1.46225 18.6809 1.46225C18.738 1.46225 18.7849 1.45255 18.8215 1.43314C18.8582 1.41374 18.8852 1.38624 18.9024 1.35067C18.9207 1.31401 18.9299 1.27035 18.9299 1.21968V0.556641H19.3067V1.2407C19.3067 1.35174 19.2808 1.44931 19.2291 1.53341C19.1773 1.61642 19.1045 1.68111 19.0108 1.72746C18.917 1.77382 18.807 1.797 18.6809 1.797C18.5569 1.797 18.448 1.77382 18.3542 1.72746C18.2604 1.68111 18.1871 1.61642 18.1343 1.53341C18.0825 1.44931 18.0566 1.35174 18.0566 1.2407V0.556641H18.4334V1.21968Z" fill="#21201C"/>
<path d="M17.1087 0.719974H17.4855V1.76951H17.1087V0.719974ZM16.6592 0.556641H17.9351V0.891393H16.6592V0.556641Z" fill="#21201C"/>
<path d="M15.3394 1.37184H15.721C15.7253 1.39987 15.7388 1.42466 15.7614 1.44623C15.7851 1.46671 15.8169 1.48288 15.8568 1.49474C15.8967 1.50552 15.9436 1.51091 15.9975 1.51091C16.0719 1.51091 16.1296 1.50229 16.1706 1.48504C16.2126 1.46779 16.2336 1.44138 16.2336 1.4058C16.2336 1.381 16.2218 1.36106 16.1981 1.34596C16.1743 1.32979 16.1274 1.31901 16.0574 1.31362L15.8439 1.29583C15.6693 1.28289 15.5426 1.24516 15.4639 1.18263C15.3863 1.11902 15.3474 1.03385 15.3474 0.927118C15.3474 0.839792 15.3728 0.767019 15.4234 0.708802C15.4741 0.649506 15.5447 0.604764 15.6353 0.574577C15.7259 0.54439 15.8326 0.529297 15.9555 0.529297C16.0741 0.529297 16.1792 0.546008 16.2708 0.579429C16.3635 0.61285 16.4369 0.660287 16.4908 0.721739C16.5457 0.782113 16.5759 0.852729 16.5813 0.933587H16.1997C16.1954 0.909868 16.183 0.889385 16.1625 0.872135C16.1431 0.853807 16.115 0.839792 16.0784 0.830089C16.0417 0.820386 15.9981 0.815534 15.9474 0.815534C15.8806 0.815534 15.8272 0.82362 15.7873 0.839792C15.7485 0.855963 15.7291 0.880221 15.7291 0.912564C15.7291 0.936282 15.7404 0.955688 15.763 0.970782C15.7868 0.985875 15.8299 0.996117 15.8924 1.00151L16.1269 1.02091C16.2433 1.02954 16.3371 1.04787 16.4083 1.0759C16.4805 1.10285 16.5328 1.14004 16.5651 1.18748C16.5975 1.23384 16.6137 1.2926 16.6137 1.36375C16.6137 1.45 16.5878 1.52601 16.536 1.59177C16.4843 1.65646 16.4115 1.70713 16.3177 1.74378C16.225 1.77936 16.1161 1.79715 15.9911 1.79715C15.8628 1.79715 15.7501 1.77936 15.6531 1.74378C15.5561 1.70821 15.48 1.65861 15.4251 1.59501C15.3701 1.53032 15.3415 1.45593 15.3394 1.37184Z" fill="#21201C"/>
<path d="M29.95 1.79715C29.8045 1.79715 29.6767 1.77074 29.5668 1.71791C29.4579 1.66508 29.3727 1.59123 29.3113 1.49636C29.2509 1.40149 29.2207 1.29044 29.2207 1.16322C29.2207 1.03601 29.2509 0.924962 29.3113 0.830089C29.3727 0.735215 29.4579 0.661365 29.5668 0.608538C29.6767 0.55571 29.8045 0.529297 29.95 0.529297C30.0956 0.529297 30.2228 0.55571 30.3317 0.608538C30.4416 0.661365 30.5268 0.735215 30.5872 0.830089C30.6486 0.924962 30.6794 1.03601 30.6794 1.16322C30.6794 1.29044 30.6486 1.40149 30.5872 1.49636C30.5268 1.59123 30.4416 1.66508 30.3317 1.71791C30.2228 1.77074 30.0956 1.79715 29.95 1.79715ZM29.95 1.4624C30.0223 1.4624 30.0843 1.45054 30.136 1.42682C30.1888 1.40202 30.2293 1.36752 30.2573 1.32332C30.2853 1.27804 30.2993 1.22468 30.2993 1.16322C30.2993 1.10177 30.2853 1.04894 30.2573 1.00474C30.2293 0.959461 30.1888 0.924962 30.136 0.901244C30.0843 0.876447 30.0223 0.864049 29.95 0.864049C29.8778 0.864049 29.8153 0.876447 29.7624 0.901244C29.7107 0.924962 29.6708 0.959461 29.6428 1.00474C29.6147 1.04894 29.6007 1.10177 29.6007 1.16322C29.6007 1.22468 29.6147 1.27804 29.6428 1.32332C29.6708 1.36752 29.7107 1.40202 29.7624 1.42682C29.8153 1.45054 29.8778 1.4624 29.95 1.4624Z" fill="#21201C"/>
<path d="M28.6846 0.556641H29.0614V1.76951H28.6846V0.556641Z" fill="#21201C"/>
<path d="M27.7961 0.556641C27.9416 0.556641 28.0688 0.581976 28.1777 0.632647C28.2877 0.68224 28.3729 0.752317 28.4332 0.842878C28.4947 0.933439 28.5254 1.04017 28.5254 1.16308C28.5254 1.2849 28.4947 1.39163 28.4332 1.48327C28.3729 1.57383 28.2877 1.64445 28.1777 1.69512C28.0688 1.74471 27.9416 1.76951 27.7961 1.76951H27.1719V0.556641H27.7961ZM27.5454 1.60618L27.3724 1.43476H27.8252C27.891 1.43476 27.9476 1.42398 27.995 1.40242C28.0435 1.37978 28.0807 1.34797 28.1066 1.307C28.1325 1.26603 28.1454 1.21806 28.1454 1.16308C28.1454 1.10701 28.1325 1.05904 28.1066 1.01915C28.0807 0.97818 28.0435 0.946915 27.995 0.925353C27.9476 0.902713 27.891 0.891393 27.8252 0.891393H27.3724L27.5454 0.719974V1.60618Z" fill="#21201C"/>
<path d="M26.1029 1.21968C26.1029 1.27035 26.112 1.31347 26.1304 1.34905C26.1487 1.38463 26.1762 1.41266 26.2128 1.43314C26.2495 1.45255 26.2953 1.46225 26.3503 1.46225C26.4074 1.46225 26.4543 1.45255 26.491 1.43314C26.5276 1.41374 26.5546 1.38624 26.5718 1.35067C26.5902 1.31401 26.5993 1.27035 26.5993 1.21968V0.556641H26.9761V1.2407C26.9761 1.35174 26.9502 1.44931 26.8985 1.53341C26.8467 1.61642 26.774 1.68111 26.6802 1.72746C26.5864 1.77382 26.4764 1.797 26.3503 1.797C26.2263 1.797 26.1174 1.77382 26.0236 1.72746C25.9298 1.68111 25.8565 1.61642 25.8037 1.53341C25.7519 1.44931 25.7261 1.35174 25.7261 1.2407V0.556641H26.1029V1.21968Z" fill="#21201C"/>
<path d="M24.7787 0.719974H25.1555V1.76951H24.7787V0.719974ZM24.3291 0.556641H25.605V0.891393H24.3291V0.556641Z" fill="#21201C"/>
<path d="M23.0093 1.37184H23.3909C23.3952 1.39987 23.4087 1.42466 23.4313 1.44623C23.4551 1.46671 23.4869 1.48288 23.5268 1.49474C23.5667 1.50552 23.6135 1.51091 23.6675 1.51091C23.7418 1.51091 23.7995 1.50229 23.8405 1.48504C23.8825 1.46779 23.9036 1.44138 23.9036 1.4058C23.9036 1.381 23.8917 1.36106 23.868 1.34596C23.8443 1.32979 23.7974 1.31901 23.7273 1.31362L23.5138 1.29583C23.3392 1.28289 23.2125 1.24516 23.1338 1.18263C23.0562 1.11902 23.0174 1.03385 23.0174 0.927118C23.0174 0.839792 23.0427 0.767019 23.0934 0.708802C23.144 0.649506 23.2147 0.604764 23.3052 0.574577C23.3958 0.54439 23.5025 0.529297 23.6254 0.529297C23.744 0.529297 23.8491 0.546008 23.9407 0.579429C24.0335 0.61285 24.1068 0.660287 24.1607 0.721739C24.2157 0.782113 24.2458 0.852729 24.2512 0.933587H23.8696C23.8653 0.909868 23.8529 0.889385 23.8324 0.872135C23.813 0.853807 23.785 0.839792 23.7483 0.830089C23.7117 0.820386 23.668 0.815534 23.6173 0.815534C23.5505 0.815534 23.4971 0.82362 23.4572 0.839792C23.4184 0.855963 23.399 0.880221 23.399 0.912564C23.399 0.936282 23.4103 0.955688 23.433 0.970782C23.4567 0.985875 23.4998 0.996117 23.5623 1.00151L23.7968 1.02091C23.9133 1.02954 24.007 1.04787 24.0782 1.0759C24.1504 1.10285 24.2027 1.14004 24.2351 1.18748C24.2674 1.23384 24.2836 1.2926 24.2836 1.36375C24.2836 1.45 24.2577 1.52601 24.206 1.59177C24.1542 1.65646 24.0814 1.70713 23.9876 1.74378C23.8949 1.77936 23.786 1.79715 23.661 1.79715C23.5327 1.79715 23.42 1.77936 23.323 1.74378C23.226 1.70821 23.15 1.65861 23.095 1.59501C23.04 1.53032 23.0114 1.45593 23.0093 1.37184Z" fill="#21201C"/>
<path d="M25.0856 31.2556C25.2312 31.2556 25.3589 31.282 25.4689 31.3348C25.5778 31.3877 25.6629 31.4615 25.7244 31.5564C25.7848 31.6512 25.8149 31.7623 25.8149 31.8895C25.8149 32.0167 25.7848 32.1278 25.7244 32.2226C25.6629 32.3175 25.5778 32.3914 25.4689 32.4442C25.3589 32.497 25.2312 32.5234 25.0856 32.5234C24.9401 32.5234 24.8129 32.497 24.704 32.4442C24.594 32.3914 24.5088 32.3175 24.4485 32.2226C24.387 32.1278 24.3563 32.0167 24.3563 31.8895C24.3563 31.7623 24.387 31.6512 24.4485 31.5564C24.5088 31.4615 24.594 31.3877 24.704 31.3348C24.8129 31.282 24.9401 31.2556 25.0856 31.2556ZM25.0856 31.5903C25.0134 31.5903 24.9514 31.6022 24.8996 31.6259C24.8468 31.6507 24.8064 31.6852 24.7784 31.7294C24.7503 31.7747 24.7363 31.8281 24.7363 31.8895C24.7363 31.951 24.7503 32.0038 24.7784 32.048C24.8064 32.0933 24.8468 32.1278 24.8996 32.1515C24.9514 32.1763 25.0134 32.1887 25.0856 32.1887C25.1578 32.1887 25.2204 32.1763 25.2732 32.1515C25.3249 32.1278 25.3648 32.0933 25.3929 32.048C25.4209 32.0038 25.4349 31.951 25.4349 31.8895C25.4349 31.8281 25.4209 31.7747 25.3929 31.7294C25.3648 31.6852 25.3249 31.6507 25.2732 31.6259C25.2204 31.6022 25.1578 31.5903 25.0856 31.5903Z" fill="#21201C"/>
<path d="M26.3506 32.4961H25.9738V31.2832H26.3506V32.4961Z" fill="#21201C"/>
<path d="M27.2396 32.4961C27.094 32.4961 26.9668 32.4708 26.8579 32.4201C26.7479 32.3705 26.6628 32.3004 26.6024 32.2099C26.541 32.1193 26.5102 32.0126 26.5102 31.8897C26.5102 31.7678 26.541 31.6611 26.6024 31.5695C26.6628 31.4789 26.7479 31.4083 26.8579 31.3576C26.9668 31.308 27.094 31.2832 27.2396 31.2832H27.8638V32.4961H27.2396ZM27.4902 31.4466L27.6632 31.618H27.2104C27.1447 31.618 27.0881 31.6288 27.0406 31.6503C26.9921 31.673 26.9549 31.7048 26.9291 31.7457C26.9032 31.7867 26.8903 31.8347 26.8903 31.8897C26.8903 31.9457 26.9032 31.9937 26.9291 32.0336C26.9549 32.0746 26.9921 32.1058 27.0406 32.1274C27.0881 32.15 27.1447 32.1613 27.2104 32.1613H27.6632L27.4902 32.3328V31.4466Z" fill="#21201C"/>
<path d="M28.9323 31.8331C28.9323 31.7824 28.9231 31.7393 28.9048 31.7037C28.8865 31.6681 28.859 31.6401 28.8223 31.6196C28.7857 31.6002 28.7399 31.5905 28.6849 31.5905C28.6277 31.5905 28.5808 31.6002 28.5442 31.6196C28.5075 31.639 28.4806 31.6665 28.4633 31.7021C28.445 31.7387 28.4358 31.7824 28.4358 31.8331V32.4961H28.059V31.812C28.059 31.701 28.0849 31.6034 28.1367 31.5193C28.1884 31.4363 28.2612 31.3716 28.355 31.3253C28.4488 31.2789 28.5587 31.2557 28.6849 31.2557C28.8088 31.2557 28.9177 31.2789 29.0115 31.3253C29.1053 31.3716 29.1786 31.4363 29.2315 31.5193C29.2832 31.6034 29.3091 31.701 29.3091 31.812V32.4961H28.9323V31.8331Z" fill="#21201C"/>
<path d="M30.257 32.3328H29.8802V31.2832H30.257V32.3328ZM30.7065 32.4961H29.4306V32.1613H30.7065V32.4961Z" fill="#21201C"/>
<path d="M17.4162 31.2556C17.5617 31.2556 17.6895 31.282 17.7994 31.3348C17.9083 31.3877 17.9935 31.4615 18.0549 31.5564C18.1153 31.6512 18.1455 31.7623 18.1455 31.8895C18.1455 32.0167 18.1153 32.1278 18.0549 32.2226C17.9935 32.3175 17.9083 32.3914 17.7994 32.4442C17.6895 32.497 17.5617 32.5234 17.4162 32.5234C17.2706 32.5234 17.1434 32.497 17.0345 32.4442C16.9246 32.3914 16.8394 32.3175 16.779 32.2226C16.7176 32.1278 16.6869 32.0167 16.6869 31.8895C16.6869 31.7623 16.7176 31.6512 16.779 31.5564C16.8394 31.4615 16.9246 31.3877 17.0345 31.3348C17.1434 31.282 17.2706 31.2556 17.4162 31.2556ZM17.4162 31.5903C17.3439 31.5903 17.282 31.6022 17.2302 31.6259C17.1774 31.6507 17.137 31.6852 17.1089 31.7294C17.0809 31.7747 17.0669 31.8281 17.0669 31.8895C17.0669 31.951 17.0809 32.0038 17.1089 32.048C17.137 32.0933 17.1774 32.1278 17.2302 32.1515C17.282 32.1763 17.3439 32.1887 17.4162 32.1887C17.4884 32.1887 17.5509 32.1763 17.6038 32.1515C17.6555 32.1278 17.6954 32.0933 17.7234 32.048C17.7515 32.0038 17.7655 31.951 17.7655 31.8895C17.7655 31.8281 17.7515 31.7747 17.7234 31.7294C17.6954 31.6852 17.6555 31.6507 17.6038 31.6259C17.5509 31.6022 17.4884 31.5903 17.4162 31.5903Z" fill="#21201C"/>
<path d="M18.6812 32.4961H18.3044V31.2832H18.6812V32.4961Z" fill="#21201C"/>
<path d="M19.5696 32.4961C19.4241 32.4961 19.2969 32.4708 19.188 32.4201C19.078 32.3705 18.9929 32.3004 18.9325 32.2099C18.871 32.1193 18.8403 32.0126 18.8403 31.8897C18.8403 31.7678 18.871 31.6611 18.9325 31.5695C18.9929 31.4789 19.078 31.4083 19.188 31.3576C19.2969 31.308 19.4241 31.2832 19.5696 31.2832H20.1938V32.4961H19.5696ZM19.8203 31.4466L19.9933 31.618H19.5405C19.4748 31.618 19.4182 31.6288 19.3707 31.6503C19.3222 31.673 19.285 31.7048 19.2591 31.7457C19.2333 31.7867 19.2203 31.8347 19.2203 31.8897C19.2203 31.9457 19.2333 31.9937 19.2591 32.0336C19.285 32.0746 19.3222 32.1058 19.3707 32.1274C19.4182 32.15 19.4748 32.1613 19.5405 32.1613H19.9933L19.8203 32.3328V31.4466Z" fill="#21201C"/>
<path d="M21.2629 31.8331C21.2629 31.7824 21.2537 31.7393 21.2354 31.7037C21.217 31.6681 21.1895 31.6401 21.1529 31.6196C21.1162 31.6002 21.0704 31.5905 21.0154 31.5905C20.9583 31.5905 20.9114 31.6002 20.8747 31.6196C20.8381 31.639 20.8111 31.6665 20.7939 31.7021C20.7756 31.7387 20.7664 31.7824 20.7664 31.8331V32.4961H20.3896V31.812C20.3896 31.701 20.4155 31.6034 20.4672 31.5193C20.519 31.4363 20.5917 31.3716 20.6855 31.3253C20.7793 31.2789 20.8893 31.2557 21.0154 31.2557C21.1394 31.2557 21.2483 31.2789 21.3421 31.3253C21.4359 31.3716 21.5092 31.4363 21.562 31.5193C21.6138 31.6034 21.6396 31.701 21.6396 31.812V32.4961H21.2629V31.8331Z" fill="#21201C"/>
<path d="M22.5871 32.3328H22.2103V31.2832H22.5871V32.3328ZM23.0366 32.4961H21.7607V32.1613H23.0366V32.4961Z" fill="#21201C"/>
<path d="M24.3564 31.6809H23.9748C23.9705 31.6529 23.957 31.6281 23.9344 31.6065C23.9107 31.586 23.8789 31.5699 23.839 31.558C23.7991 31.5472 23.7522 31.5418 23.6983 31.5418C23.6239 31.5418 23.5662 31.5504 23.5252 31.5677C23.4832 31.5849 23.4622 31.6114 23.4622 31.6469C23.4622 31.6717 23.474 31.6917 23.4977 31.7068C23.5215 31.7229 23.5684 31.7337 23.6384 31.7391L23.8519 31.7569C24.0265 31.7698 24.1532 31.8076 24.2319 31.8701C24.3095 31.9337 24.3484 32.0189 24.3484 32.1256C24.3484 32.2129 24.323 32.2857 24.2724 32.3439C24.2217 32.4032 24.1511 32.448 24.0605 32.4782C23.9699 32.5083 23.8632 32.5234 23.7403 32.5234C23.6217 32.5234 23.5166 32.5067 23.425 32.4733C23.3323 32.4399 23.2589 32.3924 23.205 32.331C23.1501 32.2706 23.1199 32.2 23.1145 32.1191H23.4961C23.5004 32.1429 23.5128 32.1633 23.5333 32.1806C23.5527 32.1989 23.5808 32.2129 23.6174 32.2226C23.6541 32.2323 23.6977 32.2372 23.7484 32.2372C23.8152 32.2372 23.8686 32.2291 23.9085 32.2129C23.9473 32.1968 23.9667 32.1725 23.9667 32.1402C23.9667 32.1165 23.9554 32.097 23.9328 32.082C23.909 32.0669 23.8659 32.0566 23.8034 32.0512L23.5689 32.0318C23.4525 32.0232 23.3587 32.0049 23.2875 31.9768C23.2153 31.9499 23.163 31.9127 23.1307 31.8653C23.0983 31.8189 23.0821 31.7601 23.0821 31.689C23.0821 31.6027 23.108 31.5267 23.1598 31.461C23.2115 31.3963 23.2843 31.3456 23.3781 31.309C23.4708 31.2734 23.5797 31.2556 23.7047 31.2556C23.833 31.2556 23.9457 31.2734 24.0427 31.309C24.1397 31.3445 24.2158 31.3941 24.2707 31.4577C24.3257 31.5224 24.3543 31.5968 24.3564 31.6809Z" fill="#21201C"/>
<path d="M9.74577 31.2556C9.89131 31.2556 10.0191 31.282 10.129 31.3348C10.2379 31.3877 10.3231 31.4615 10.3845 31.5564C10.4449 31.6512 10.4751 31.7623 10.4751 31.8895C10.4751 32.0167 10.4449 32.1278 10.3845 32.2226C10.3231 32.3175 10.2379 32.3914 10.129 32.4442C10.0191 32.497 9.89131 32.5234 9.74577 32.5234C9.60023 32.5234 9.47301 32.497 9.36413 32.4442C9.25416 32.3914 9.16899 32.3175 9.10862 32.2226C9.04717 32.1278 9.01644 32.0167 9.01644 31.8895C9.01644 31.7623 9.04717 31.6512 9.10862 31.5564C9.16899 31.4615 9.25416 31.3877 9.36413 31.3348C9.47301 31.282 9.60023 31.2556 9.74577 31.2556ZM9.74577 31.5903C9.67354 31.5903 9.61155 31.6022 9.5598 31.6259C9.50697 31.6507 9.46654 31.6852 9.43851 31.7294C9.41048 31.7747 9.39647 31.8281 9.39647 31.8895C9.39647 31.951 9.41048 32.0038 9.43851 32.048C9.46654 32.0933 9.50697 32.1278 9.5598 32.1515C9.61155 32.1763 9.67354 32.1887 9.74577 32.1887C9.818 32.1887 9.88053 32.1763 9.93336 32.1515C9.98511 32.1278 10.025 32.0933 10.053 32.048C10.0811 32.0038 10.0951 31.951 10.0951 31.8895C10.0951 31.8281 10.0811 31.7747 10.053 31.7294C10.025 31.6852 9.98511 31.6507 9.93336 31.6259C9.88053 31.6022 9.818 31.5903 9.74577 31.5903Z" fill="#21201C"/>
<path d="M11.0112 32.4961H10.6344V31.2832H11.0112V32.4961Z" fill="#21201C"/>
<path d="M11.9002 32.4961C11.7547 32.4961 11.6274 32.4708 11.5186 32.4201C11.4086 32.3705 11.3234 32.3004 11.263 32.2099C11.2016 32.1193 11.1709 32.0126 11.1709 31.8897C11.1709 31.7678 11.2016 31.6611 11.263 31.5695C11.3234 31.4789 11.4086 31.4083 11.5186 31.3576C11.6274 31.308 11.7547 31.2832 11.9002 31.2832H12.5244V32.4961H11.9002ZM12.1509 31.4466L12.3239 31.618H11.8711C11.8053 31.618 11.7487 31.6288 11.7013 31.6503C11.6528 31.673 11.6156 31.7048 11.5897 31.7457C11.5638 31.7867 11.5509 31.8347 11.5509 31.8897C11.5509 31.9457 11.5638 31.9937 11.5897 32.0336C11.6156 32.0746 11.6528 32.1058 11.7013 32.1274C11.7487 32.15 11.8053 32.1613 11.8711 32.1613H12.3239L12.1509 32.3328V31.4466Z" fill="#21201C"/>
<path d="M13.5924 31.8331C13.5924 31.7824 13.5833 31.7393 13.565 31.7037C13.5466 31.6681 13.5191 31.6401 13.4825 31.6196C13.4458 31.6002 13.4 31.5905 13.345 31.5905C13.2879 31.5905 13.241 31.6002 13.2043 31.6196C13.1677 31.639 13.1407 31.6665 13.1235 31.7021C13.1051 31.7387 13.096 31.7824 13.096 31.8331V32.4961H12.7192V31.812C12.7192 31.701 12.7451 31.6034 12.7968 31.5193C12.8486 31.4363 12.9213 31.3716 13.0151 31.3253C13.1089 31.2789 13.2189 31.2557 13.345 31.2557C13.469 31.2557 13.5779 31.2789 13.6717 31.3253C13.7655 31.3716 13.8388 31.4363 13.8916 31.5193C13.9434 31.6034 13.9692 31.701 13.9692 31.812V32.4961H13.5924V31.8331Z" fill="#21201C"/>
<path d="M14.9171 32.3328H14.5403V31.2832H14.9171V32.3328ZM15.3667 32.4961H14.0908V32.1613H15.3667V32.4961Z" fill="#21201C"/>
<path d="M16.6865 31.6809H16.3049C16.3006 31.6529 16.2871 31.6281 16.2645 31.6065C16.2407 31.586 16.2089 31.5699 16.169 31.558C16.1292 31.5472 16.0823 31.5418 16.0283 31.5418C15.954 31.5418 15.8963 31.5504 15.8553 31.5677C15.8133 31.5849 15.7922 31.6114 15.7922 31.6469C15.7922 31.6717 15.8041 31.6917 15.8278 31.7068C15.8515 31.7229 15.8984 31.7337 15.9685 31.7391L16.182 31.7569C16.3566 31.7698 16.4833 31.8076 16.562 31.8701C16.6396 31.9337 16.6784 32.0189 16.6784 32.1256C16.6784 32.2129 16.6531 32.2857 16.6024 32.3439C16.5518 32.4032 16.4811 32.448 16.3906 32.4782C16.3 32.5083 16.1933 32.5234 16.0704 32.5234C15.9518 32.5234 15.8467 32.5067 15.7551 32.4733C15.6623 32.4399 15.589 32.3924 15.5351 32.331C15.4801 32.2706 15.45 32.2 15.4446 32.1191H15.8262C15.8305 32.1429 15.8429 32.1633 15.8634 32.1806C15.8828 32.1989 15.9108 32.2129 15.9475 32.2226C15.9841 32.2323 16.0278 32.2372 16.0785 32.2372C16.1453 32.2372 16.1987 32.2291 16.2386 32.2129C16.2774 32.1968 16.2968 32.1725 16.2968 32.1402C16.2968 32.1165 16.2855 32.097 16.2628 32.082C16.2391 32.0669 16.196 32.0566 16.1335 32.0512L15.899 32.0318C15.7825 32.0232 15.6888 32.0049 15.6176 31.9768C15.5454 31.9499 15.4931 31.9127 15.4607 31.8653C15.4284 31.8189 15.4122 31.7601 15.4122 31.689C15.4122 31.6027 15.4381 31.5267 15.4898 31.461C15.5416 31.3963 15.6144 31.3456 15.7082 31.309C15.8009 31.2734 15.9098 31.2556 16.0348 31.2556C16.1631 31.2556 16.2758 31.2734 16.3728 31.309C16.4698 31.3445 16.5458 31.3941 16.6008 31.4577C16.6558 31.5224 16.6844 31.5968 16.6865 31.6809Z" fill="#21201C"/>
<path d="M2.07585 31.2556C2.22139 31.2556 2.34914 31.282 2.45911 31.3348C2.568 31.3877 2.65316 31.4615 2.71462 31.5564C2.77499 31.6512 2.80518 31.7623 2.80518 31.8895C2.80518 32.0167 2.77499 32.1278 2.71462 32.2226C2.65316 32.3175 2.568 32.3914 2.45911 32.4442C2.34914 32.497 2.22139 32.5234 2.07585 32.5234C1.93031 32.5234 1.80309 32.497 1.6942 32.4442C1.58424 32.3914 1.49907 32.3175 1.4387 32.2226C1.37725 32.1278 1.34652 32.0167 1.34652 31.8895C1.34652 31.7623 1.37725 31.6512 1.4387 31.5564C1.49907 31.4615 1.58424 31.3877 1.6942 31.3348C1.80309 31.282 1.93031 31.2556 2.07585 31.2556ZM2.07585 31.5903C2.00362 31.5903 1.94163 31.6022 1.88988 31.6259C1.83705 31.6507 1.79662 31.6852 1.76859 31.7294C1.74056 31.7747 1.72655 31.8281 1.72655 31.8895C1.72655 31.951 1.74056 32.0038 1.76859 32.048C1.79662 32.0933 1.83705 32.1278 1.88988 32.1515C1.94163 32.1763 2.00362 32.1887 2.07585 32.1887C2.14808 32.1887 2.21061 32.1763 2.26344 32.1515C2.31518 32.1278 2.35507 32.0933 2.3831 32.048C2.41113 32.0038 2.42515 31.951 2.42515 31.8895C2.42515 31.8281 2.41113 31.7747 2.3831 31.7294C2.35507 31.6852 2.31518 31.6507 2.26344 31.6259C2.21061 31.6022 2.14808 31.5903 2.07585 31.5903Z" fill="#21201C"/>
<path d="M3.34131 32.4961H2.96452V31.2832H3.34131V32.4961Z" fill="#21201C"/>
<path d="M4.23028 32.4961C4.08474 32.4961 3.95752 32.4708 3.84863 32.4201C3.73867 32.3705 3.6535 32.3004 3.59313 32.2099C3.53168 32.1193 3.50095 32.0126 3.50095 31.8897C3.50095 31.7678 3.53168 31.6611 3.59313 31.5695C3.6535 31.4789 3.73867 31.4083 3.84863 31.3576C3.95752 31.308 4.08474 31.2832 4.23028 31.2832H4.85449V32.4961H4.23028ZM4.48093 31.4466L4.65397 31.618H4.20117C4.13541 31.618 4.07881 31.6288 4.03137 31.6503C3.98286 31.673 3.94566 31.7048 3.91979 31.7457C3.89391 31.7867 3.88098 31.8347 3.88098 31.8897C3.88098 31.9457 3.89391 31.9937 3.91979 32.0336C3.94566 32.0746 3.98286 32.1058 4.03137 32.1274C4.07881 32.15 4.13541 32.1613 4.20117 32.1613H4.65397L4.48093 32.3328V31.4466Z" fill="#21201C"/>
<path d="M5.92252 31.8331C5.92252 31.7824 5.91336 31.7393 5.89503 31.7037C5.8767 31.6681 5.84921 31.6401 5.81256 31.6196C5.7759 31.6002 5.73008 31.5905 5.6751 31.5905C5.61796 31.5905 5.57107 31.6002 5.53441 31.6196C5.49776 31.639 5.4708 31.6665 5.45355 31.7021C5.43523 31.7387 5.42606 31.7824 5.42606 31.8331V32.4961H5.04927V31.812C5.04927 31.701 5.07514 31.6034 5.12689 31.5193C5.17864 31.4363 5.25141 31.3716 5.34521 31.3253C5.439 31.2789 5.54897 31.2557 5.6751 31.2557C5.79908 31.2557 5.90797 31.2789 6.00176 31.3253C6.09556 31.3716 6.16887 31.4363 6.22169 31.5193C6.27344 31.6034 6.29932 31.701 6.29932 31.812V32.4961H5.92252V31.8331Z" fill="#21201C"/>
<path d="M7.24721 32.3328H6.87042V31.2832H7.24721V32.3328ZM7.69678 32.4961H6.42086V32.1613H7.69678V32.4961Z" fill="#21201C"/>
<path d="M9.0166 31.6809H8.63496C8.63065 31.6529 8.61717 31.6281 8.59453 31.6065C8.57081 31.586 8.53901 31.5699 8.49912 31.558C8.45923 31.5472 8.41233 31.5418 8.35843 31.5418C8.28404 31.5418 8.22636 31.5504 8.18539 31.5677C8.14335 31.5849 8.12233 31.6114 8.12233 31.6469C8.12233 31.6717 8.13418 31.6917 8.1579 31.7068C8.18162 31.7229 8.22852 31.7337 8.29859 31.7391L8.51206 31.7569C8.68671 31.7698 8.81338 31.8076 8.89208 31.8701C8.9697 31.9337 9.00852 32.0189 9.00852 32.1256C9.00852 32.2129 8.98318 32.2857 8.93251 32.3439C8.88184 32.4032 8.81123 32.448 8.72067 32.4782C8.63011 32.5083 8.52338 32.5234 8.40047 32.5234C8.28188 32.5234 8.17677 32.5067 8.08513 32.4733C7.99242 32.4399 7.91911 32.3924 7.8652 32.331C7.81022 32.2706 7.78003 32.2 7.77464 32.1191H8.15629C8.1606 32.1429 8.173 32.1633 8.19348 32.1806C8.21289 32.1989 8.24092 32.2129 8.27757 32.2226C8.31423 32.2323 8.35789 32.2372 8.40856 32.2372C8.4754 32.2372 8.52877 32.2291 8.56865 32.2129C8.60747 32.1968 8.62687 32.1725 8.62687 32.1402C8.62687 32.1165 8.61555 32.097 8.59291 32.082C8.56919 32.0669 8.52607 32.0566 8.46354 32.0512L8.22906 32.0318C8.11262 32.0232 8.01883 32.0049 7.94767 31.9768C7.87544 31.9499 7.82316 31.9127 7.79081 31.8653C7.75847 31.8189 7.7423 31.7601 7.7423 31.689C7.7423 31.6027 7.76817 31.5267 7.81992 31.461C7.87167 31.3963 7.94444 31.3456 8.03823 31.309C8.13095 31.2734 8.23984 31.2556 8.3649 31.2556C8.49319 31.2556 8.60585 31.2734 8.70288 31.309C8.79991 31.3445 8.87591 31.3941 8.93089 31.4577C8.98588 31.5224 9.01445 31.5968 9.0166 31.6809Z" fill="#21201C"/>
<path d="M1.26783 25.6144C1.26783 25.76 1.24142 25.8877 1.18859 25.9977C1.13577 26.1066 1.06192 26.1917 0.967047 26.2532C0.872175 26.3136 0.761132 26.3438 0.633917 26.3438C0.506702 26.3438 0.395659 26.3136 0.300787 26.2532C0.205915 26.1917 0.132066 26.1066 0.0792396 25.9977C0.0264132 25.8877 0 25.76 0 25.6144C0 25.4689 0.0264132 25.3417 0.0792396 25.2328C0.132066 25.1228 0.205915 25.0376 0.300787 24.9773C0.395659 24.9158 0.506702 24.8851 0.633917 24.8851C0.761132 24.8851 0.872175 24.9158 0.967047 24.9773C1.06192 25.0376 1.13577 25.1228 1.18859 25.2328C1.24142 25.3417 1.26783 25.4689 1.26783 25.6144ZM0.933087 25.6144C0.933087 25.5422 0.921228 25.4802 0.89751 25.4284C0.872714 25.3756 0.838215 25.3352 0.794014 25.3072C0.748734 25.2791 0.695368 25.2651 0.633917 25.2651C0.572466 25.2651 0.51964 25.2791 0.475438 25.3072C0.430158 25.3352 0.395659 25.3756 0.371941 25.4284C0.347145 25.4802 0.334747 25.5422 0.334747 25.6144C0.334747 25.6866 0.347145 25.7492 0.371941 25.802C0.395659 25.8538 0.430158 25.8936 0.475438 25.9217C0.51964 25.9497 0.572466 25.9637 0.633917 25.9637C0.695368 25.9637 0.748734 25.9497 0.794014 25.9217C0.838215 25.8936 0.872714 25.8538 0.89751 25.802C0.921228 25.7492 0.933087 25.6866 0.933087 25.6144Z" fill="#21201C"/>
<path d="M0.0273438 26.8789L0.0273438 26.5021H1.2402V26.8789H0.0273438Z" fill="#21201C"/>
<path d="M0.0273438 27.7684C0.0273438 27.6228 0.0526789 27.4956 0.103349 27.3867C0.152941 27.2767 0.223017 27.1916 0.313577 27.1312C0.404136 27.0697 0.510867 27.039 0.63377 27.039C0.755594 27.039 0.862325 27.0697 0.953963 27.1312C1.04452 27.1916 1.11514 27.2767 1.16581 27.3867C1.2154 27.4956 1.2402 27.6228 1.2402 27.7684V28.3926H0.0273438L0.0273438 27.7684ZM1.07686 28.019L0.905448 28.1921V27.7392C0.905448 27.6735 0.894668 27.6169 0.873106 27.5694C0.850466 27.5209 0.818662 27.4837 0.777695 27.4579C0.736727 27.432 0.688752 27.419 0.63377 27.419C0.577709 27.419 0.529734 27.432 0.489845 27.4579C0.448877 27.4837 0.417613 27.5209 0.396051 27.5694C0.373411 27.6169 0.362091 27.6735 0.362091 27.7392L0.362091 28.1921L0.190674 28.019H1.07686Z" fill="#21201C"/>
<path d="M0.690369 29.4611C0.74104 29.4611 0.784163 29.4519 0.81974 29.4336C0.855317 29.4153 0.883348 29.3878 0.903831 29.3511C0.923237 29.3145 0.93294 29.2687 0.93294 29.2137C0.93294 29.1565 0.923237 29.1096 0.903831 29.073C0.884426 29.0363 0.856934 29.0094 0.821357 28.9921C0.784702 28.9738 0.74104 28.9646 0.690369 28.9646H0.0273438L0.0273438 28.5878H0.711392C0.822435 28.5878 0.920003 28.6137 1.00409 28.6654C1.08711 28.7172 1.15179 28.79 1.19815 28.8838C1.24451 28.9776 1.26769 29.0875 1.26769 29.2137C1.26769 29.3376 1.24451 29.4465 1.19815 29.5403C1.15179 29.6341 1.08711 29.7074 1.00409 29.7603C0.920003 29.812 0.822435 29.8379 0.711392 29.8379H0.0273438L0.0273438 29.4611H0.690369Z" fill="#21201C"/>
<path d="M0.190674 30.7848L0.190674 30.408H1.2402V30.7848H0.190674ZM0.0273438 31.2344L0.0273438 29.9584H0.362091L0.362091 31.2344H0.0273438Z" fill="#21201C"/>
<path d="M0.842528 32.5547V32.173C0.870558 32.1687 0.895354 32.1552 0.916916 32.1326C0.9374 32.1089 0.953571 32.0771 0.96543 32.0372C0.976211 31.9973 0.981601 31.9504 0.981601 31.8965C0.981601 31.8221 0.972977 31.7644 0.955727 31.7235C0.938478 31.6814 0.912064 31.6604 0.876487 31.6604C0.851691 31.6604 0.831747 31.6723 0.816653 31.696C0.800482 31.7197 0.789701 31.7666 0.784311 31.8367L0.766522 32.0501C0.753585 32.2248 0.715852 32.3515 0.653323 32.4302C0.589715 32.5078 0.504546 32.5466 0.397815 32.5466C0.31049 32.5466 0.237719 32.5213 0.179502 32.4706C0.120207 32.4199 0.0754663 32.3493 0.0452798 32.2587C0.0150933 32.1682 0 32.0615 0 31.9385C0 31.82 0.0167104 31.7148 0.0501311 31.6232C0.083552 31.5305 0.130988 31.4572 0.192439 31.4033C0.252812 31.3483 0.323427 31.3181 0.404284 31.3127V31.6944C0.380566 31.6987 0.360082 31.7111 0.342833 31.7316C0.324505 31.751 0.31049 31.779 0.300787 31.8156C0.291084 31.8523 0.286233 31.896 0.286233 31.9466C0.286233 32.0135 0.294319 32.0668 0.31049 32.1067C0.326661 32.1455 0.350918 32.165 0.383261 32.165C0.406979 32.165 0.426385 32.1536 0.441478 32.131C0.456571 32.1073 0.466813 32.0641 0.472204 32.0016L0.491609 31.7671C0.500234 31.6507 0.518561 31.5569 0.546592 31.4857C0.573544 31.4135 0.610738 31.3612 0.658174 31.3289C0.704532 31.2965 0.763288 31.2804 0.834442 31.2804C0.920689 31.2804 0.996695 31.3062 1.06246 31.358C1.12714 31.4097 1.17781 31.4825 1.21447 31.5763C1.25005 31.669 1.26783 31.7779 1.26783 31.903C1.26783 32.0313 1.25005 32.1439 1.21447 32.241C1.17889 32.338 1.1293 32.414 1.06569 32.469C1.00101 32.524 0.926619 32.5525 0.842528 32.5547Z" fill="#21201C"/>
<path d="M1.26783 17.9445C1.26783 18.09 1.24142 18.2178 1.18859 18.3278C1.13577 18.4366 1.06192 18.5218 0.967047 18.5833C0.872175 18.6436 0.761132 18.6738 0.633917 18.6738C0.506702 18.6738 0.395659 18.6436 0.300787 18.5833C0.205915 18.5218 0.132066 18.4366 0.0792396 18.3278C0.0264132 18.2178 0 18.09 0 17.9445C0 17.7989 0.0264132 17.6717 0.0792396 17.5628C0.132066 17.4529 0.205915 17.3677 0.300787 17.3073C0.395659 17.2459 0.506702 17.2151 0.633917 17.2151C0.761132 17.2151 0.872175 17.2459 0.967047 17.3073C1.06192 17.3677 1.13577 17.4529 1.18859 17.5628C1.24142 17.6717 1.26783 17.7989 1.26783 17.9445ZM0.933087 17.9445C0.933087 17.8723 0.921228 17.8103 0.89751 17.7585C0.872714 17.7057 0.838215 17.6653 0.794014 17.6372C0.748734 17.6092 0.695368 17.5952 0.633917 17.5952C0.572466 17.5952 0.51964 17.6092 0.475438 17.6372C0.430158 17.6653 0.395659 17.7057 0.371941 17.7585C0.347145 17.8103 0.334747 17.8723 0.334747 17.9445C0.334747 18.0167 0.347145 18.0793 0.371941 18.1321C0.395659 18.1838 0.430158 18.2237 0.475438 18.2517C0.51964 18.2798 0.572466 18.2938 0.633917 18.2938C0.695368 18.2938 0.748734 18.2798 0.794014 18.2517C0.838215 18.2237 0.872714 18.1838 0.89751 18.1321C0.921228 18.0793 0.933087 18.0167 0.933087 17.9445Z" fill="#21201C"/>
<path d="M0.0273438 19.209L0.0273438 18.8322H1.2402V19.209H0.0273438Z" fill="#21201C"/>
<path d="M0.0273438 20.0984C0.0273438 19.9529 0.0526789 19.8257 0.103349 19.7168C0.152941 19.6068 0.223017 19.5216 0.313577 19.4613C0.404136 19.3998 0.510867 19.3691 0.63377 19.3691C0.755594 19.3691 0.862325 19.3998 0.953963 19.4613C1.04452 19.5216 1.11514 19.6068 1.16581 19.7168C1.2154 19.8257 1.2402 19.9529 1.2402 20.0984V20.7227H0.0273438L0.0273438 20.0984ZM1.07686 20.3491L0.905448 20.5221V20.0693C0.905448 20.0036 0.894668 19.947 0.873106 19.8995C0.850466 19.851 0.818662 19.8138 0.777695 19.7879C0.736727 19.7621 0.688752 19.7491 0.63377 19.7491C0.577709 19.7491 0.529734 19.7621 0.489845 19.7879C0.448877 19.8138 0.417613 19.851 0.396051 19.8995C0.373411 19.947 0.362091 20.0036 0.362091 20.0693L0.362091 20.5221L0.190674 20.3491H1.07686Z" fill="#21201C"/>
<path d="M0.690369 21.7912C0.74104 21.7912 0.784163 21.782 0.81974 21.7637C0.855317 21.7454 0.883348 21.7179 0.903831 21.6812C0.923237 21.6445 0.93294 21.5987 0.93294 21.5437C0.93294 21.4866 0.923237 21.4397 0.903831 21.4031C0.884426 21.3664 0.856934 21.3394 0.821357 21.3222C0.784702 21.3039 0.74104 21.2947 0.690369 21.2947H0.0273438L0.0273438 20.9179H0.711392C0.822435 20.9179 0.920003 20.9438 1.00409 20.9955C1.08711 21.0473 1.15179 21.12 1.19815 21.2138C1.24451 21.3076 1.26769 21.4176 1.26769 21.5437C1.26769 21.6677 1.24451 21.7766 1.19815 21.8704C1.15179 21.9642 1.08711 22.0375 1.00409 22.0903C0.920003 22.1421 0.822435 22.168 0.711392 22.168H0.0273438L0.0273438 21.7912H0.690369Z" fill="#21201C"/>
<path d="M0.190674 23.1149L0.190674 22.7381H1.2402V23.1149H0.190674ZM0.0273438 23.5645L0.0273438 22.2885H0.362091L0.362091 23.5645H0.0273438Z" fill="#21201C"/>
<path d="M0.842528 24.8848V24.5031C0.870558 24.4988 0.895354 24.4853 0.916916 24.4627C0.9374 24.439 0.953571 24.4072 0.96543 24.3673C0.976211 24.3274 0.981601 24.2805 0.981601 24.2266C0.981601 24.1522 0.972977 24.0945 0.955727 24.0535C0.938478 24.0115 0.912064 23.9905 0.876487 23.9905C0.851691 23.9905 0.831747 24.0023 0.816653 24.0261C0.800482 24.0498 0.789701 24.0967 0.784311 24.1667L0.766522 24.3802C0.753585 24.5549 0.715852 24.6815 0.653323 24.7602C0.589715 24.8379 0.504546 24.8767 0.397815 24.8767C0.31049 24.8767 0.237719 24.8513 0.179502 24.8007C0.120207 24.75 0.0754663 24.6794 0.0452798 24.5888C0.0150933 24.4983 0 24.3915 0 24.2686C0 24.15 0.0167104 24.0449 0.0501311 23.9533C0.083552 23.8606 0.130988 23.7873 0.192439 23.7333C0.252812 23.6784 0.323427 23.6482 0.404284 23.6428V24.0244C0.380566 24.0287 0.360082 24.0411 0.342833 24.0616C0.324505 24.081 0.31049 24.1091 0.300787 24.1457C0.291084 24.1824 0.286233 24.226 0.286233 24.2767C0.286233 24.3436 0.294319 24.3969 0.31049 24.4368C0.326661 24.4756 0.350918 24.495 0.383261 24.495C0.406979 24.495 0.426385 24.4837 0.441478 24.4611C0.456571 24.4374 0.466813 24.3942 0.472204 24.3317L0.491609 24.0972C0.500234 23.9808 0.518561 23.887 0.546592 23.8158C0.573544 23.7436 0.610738 23.6913 0.658174 23.659C0.704532 23.6266 0.763288 23.6104 0.834442 23.6104C0.920689 23.6104 0.996695 23.6363 1.06246 23.6881C1.12714 23.7398 1.17781 23.8126 1.21447 23.9064C1.25005 23.9991 1.26783 24.108 1.26783 24.2331C1.26783 24.3613 1.25005 24.474 1.21447 24.571C1.17889 24.6681 1.1293 24.7441 1.06569 24.7991C1.00101 24.854 0.926619 24.8826 0.842528 24.8848Z" fill="#21201C"/>
<path d="M1.26783 10.2746C1.26783 10.4201 1.24142 10.5479 1.18859 10.6578C1.13577 10.7667 1.06192 10.8519 0.967047 10.9133C0.872175 10.9737 0.761132 11.0039 0.633917 11.0039C0.506702 11.0039 0.395659 10.9737 0.300787 10.9133C0.205915 10.8519 0.132066 10.7667 0.0792396 10.6578C0.0264132 10.5479 0 10.4201 0 10.2746C0 10.129 0.0264132 10.0018 0.0792396 9.89292C0.132066 9.78295 0.205915 9.69778 0.300787 9.63741C0.395659 9.57595 0.506702 9.54523 0.633917 9.54523C0.761132 9.54523 0.872175 9.57595 0.967047 9.63741C1.06192 9.69778 1.13577 9.78295 1.18859 9.89292C1.24142 10.0018 1.26783 10.129 1.26783 10.2746ZM0.933087 10.2746C0.933087 10.2023 0.921228 10.1403 0.89751 10.0886C0.872714 10.0358 0.838215 9.99534 0.794014 9.96731C0.748734 9.93928 0.695368 9.92526 0.633917 9.92526C0.572466 9.92526 0.51964 9.93928 0.475438 9.96731C0.430158 9.99534 0.395659 10.0358 0.371941 10.0886C0.347145 10.1403 0.334747 10.2023 0.334747 10.2746C0.334747 10.3468 0.347145 10.4093 0.371941 10.4622C0.395659 10.5139 0.430158 10.5538 0.475438 10.5818C0.51964 10.6099 0.572466 10.6239 0.633917 10.6239C0.695368 10.6239 0.748734 10.6099 0.794014 10.5818C0.838215 10.5538 0.872714 10.5139 0.89751 10.4622C0.921228 10.4093 0.933087 10.3468 0.933087 10.2746Z" fill="#21201C"/>
<path d="M0.0273438 11.5391L0.0273438 11.1623H1.2402V11.5391H0.0273438Z" fill="#21201C"/>
<path d="M0.0273438 12.4285C0.0273438 12.283 0.0526789 12.1557 0.103349 12.0469C0.152941 11.9369 0.223017 11.8517 0.313577 11.7913C0.404136 11.7299 0.510867 11.6992 0.63377 11.6992C0.755594 11.6992 0.862325 11.7299 0.953963 11.7913C1.04452 11.8517 1.11514 11.9369 1.16581 12.0469C1.2154 12.1557 1.2402 12.283 1.2402 12.4285V13.0527H0.0273438L0.0273438 12.4285ZM1.07686 12.6792L0.905448 12.8522V12.3994C0.905448 12.3336 0.894668 12.277 0.873106 12.2296C0.850466 12.1811 0.818662 12.1439 0.777695 12.118C0.736727 12.0921 0.688752 12.0792 0.63377 12.0792C0.577709 12.0792 0.529734 12.0921 0.489845 12.118C0.448877 12.1439 0.417613 12.1811 0.396051 12.2296C0.373411 12.277 0.362091 12.3336 0.362091 12.3994L0.362091 12.8522L0.190674 12.6792H1.07686Z" fill="#21201C"/>
<path d="M0.690369 14.1212C0.74104 14.1212 0.784163 14.1121 0.81974 14.0938C0.855317 14.0754 0.883348 14.0479 0.903831 14.0113C0.923237 13.9746 0.93294 13.9288 0.93294 13.8738C0.93294 13.8167 0.923237 13.7698 0.903831 13.7331C0.884426 13.6965 0.856934 13.6695 0.821357 13.6523C0.784702 13.6339 0.74104 13.6248 0.690369 13.6248H0.0273438L0.0273438 13.248H0.711392C0.822435 13.248 0.920003 13.2739 1.00409 13.3256C1.08711 13.3774 1.15179 13.4501 1.19815 13.5439C1.24451 13.6377 1.26769 13.7477 1.26769 13.8738C1.26769 13.9978 1.24451 14.1067 1.19815 14.2005C1.15179 14.2943 1.08711 14.3676 1.00409 14.4204C0.920003 14.4722 0.822435 14.498 0.711392 14.498H0.0273438L0.0273438 14.1212H0.690369Z" fill="#21201C"/>
<path d="M0.190674 15.445L0.190674 15.0682H1.2402V15.445H0.190674ZM0.0273438 15.8945L0.0273438 14.6186H0.362091L0.362091 15.8945H0.0273438Z" fill="#21201C"/>
<path d="M0.842528 17.2148V16.8332C0.870558 16.8289 0.895354 16.8154 0.916916 16.7928C0.9374 16.769 0.953571 16.7372 0.96543 16.6974C0.976211 16.6575 0.981601 16.6106 0.981601 16.5567C0.981601 16.4823 0.972977 16.4246 0.955727 16.3836C0.938478 16.3416 0.912064 16.3206 0.876487 16.3206C0.851691 16.3206 0.831747 16.3324 0.816653 16.3561C0.800482 16.3799 0.789701 16.4267 0.784311 16.4968L0.766522 16.7103C0.753585 16.8849 0.715852 17.0116 0.653323 17.0903C0.589715 17.1679 0.504546 17.2068 0.397815 17.2068C0.31049 17.2068 0.237719 17.1814 0.179502 17.1308C0.120207 17.0801 0.0754663 17.0095 0.0452798 16.9189C0.0150933 16.8283 0 16.7216 0 16.5987C0 16.4801 0.0167104 16.375 0.0501311 16.2834C0.083552 16.1906 0.130988 16.1173 0.192439 16.0634C0.252812 16.0084 0.323427 15.9783 0.404284 15.9729V16.3545C0.380566 16.3588 0.360082 16.3712 0.342833 16.3917C0.324505 16.4111 0.31049 16.4391 0.300787 16.4758C0.291084 16.5125 0.286233 16.5561 0.286233 16.6068C0.286233 16.6736 0.294319 16.727 0.31049 16.7669C0.326661 16.8057 0.350918 16.8251 0.383261 16.8251C0.406979 16.8251 0.426385 16.8138 0.441478 16.7911C0.456571 16.7674 0.466813 16.7243 0.472204 16.6618L0.491609 16.4273C0.500234 16.3109 0.518561 16.2171 0.546592 16.1459C0.573544 16.0737 0.610738 16.0214 0.658174 15.989C0.704532 15.9567 0.763288 15.9405 0.834442 15.9405C0.920689 15.9405 0.996695 15.9664 1.06246 16.0181C1.12714 16.0699 1.17781 16.1427 1.21447 16.2365C1.25005 16.3292 1.26783 16.4381 1.26783 16.5631C1.26783 16.6914 1.25005 16.8041 1.21447 16.9011C1.17889 16.9981 1.1293 17.0742 1.06569 17.1291C1.00101 17.1841 0.926619 17.2127 0.842528 17.2148Z" fill="#21201C"/>
<path d="M1.26783 2.60465C1.26783 2.75019 1.24142 2.87795 1.18859 2.98791C1.13577 3.0968 1.06192 3.18197 0.967047 3.24342C0.872175 3.3038 0.761132 3.33398 0.633917 3.33398C0.506702 3.33398 0.395659 3.3038 0.300787 3.24342C0.205915 3.18197 0.132066 3.0968 0.0792396 2.98791C0.0264132 2.87795 0 2.75019 0 2.60465C0 2.4591 0.0264132 2.33188 0.0792396 2.223C0.132066 2.11303 0.205915 2.02786 0.300787 1.96748C0.395659 1.90603 0.506702 1.87531 0.633917 1.87531C0.761132 1.87531 0.872175 1.90603 0.967047 1.96748C1.06192 2.02786 1.13577 2.11303 1.18859 2.223C1.24142 2.33188 1.26783 2.4591 1.26783 2.60465ZM0.933087 2.60465C0.933087 2.53241 0.921228 2.47042 0.89751 2.41867C0.872714 2.36584 0.838215 2.32542 0.794014 2.29739C0.748734 2.26935 0.695368 2.25534 0.633917 2.25534C0.572466 2.25534 0.51964 2.26935 0.475438 2.29739C0.430158 2.32542 0.395659 2.36584 0.371941 2.41867C0.347145 2.47042 0.334747 2.53241 0.334747 2.60465C0.334747 2.67688 0.347145 2.73941 0.371941 2.79224C0.395659 2.84398 0.430158 2.88387 0.475438 2.91191C0.51964 2.93994 0.572466 2.95395 0.633917 2.95395C0.695368 2.95395 0.748734 2.93994 0.794014 2.91191C0.838215 2.88387 0.872714 2.84398 0.89751 2.79224C0.921228 2.73941 0.933087 2.67688 0.933087 2.60465Z" fill="#21201C"/>
<path d="M0.0273438 3.86914L0.0273438 3.49234H1.2402V3.86914H0.0273438Z" fill="#21201C"/>
<path d="M0.0273438 4.75859C0.0273438 4.61304 0.0526789 4.48583 0.103349 4.37694C0.152941 4.26697 0.223017 4.1818 0.313577 4.12143C0.404136 4.05998 0.510867 4.02925 0.63377 4.02925C0.755594 4.02925 0.862325 4.05998 0.953963 4.12143C1.04452 4.1818 1.11514 4.26697 1.16581 4.37694C1.2154 4.48583 1.2402 4.61304 1.2402 4.75859V5.38281H0.0273438L0.0273438 4.75859ZM1.07686 5.00925L0.905448 5.18228V4.72948C0.905448 4.66372 0.894668 4.60711 0.873106 4.55968C0.850466 4.51116 0.818662 4.47397 0.777695 4.44809C0.736727 4.42222 0.688752 4.40928 0.63377 4.40928C0.577709 4.40928 0.529734 4.42222 0.489845 4.44809C0.448877 4.47397 0.417613 4.51116 0.396051 4.55968C0.373411 4.60711 0.362091 4.66372 0.362091 4.72948L0.362091 5.18228L0.190674 5.00925H1.07686Z" fill="#21201C"/>
<path d="M0.690369 6.45133C0.74104 6.45133 0.784163 6.44216 0.81974 6.42384C0.855317 6.40551 0.883348 6.37802 0.903831 6.34136C0.923237 6.3047 0.93294 6.25888 0.93294 6.2039C0.93294 6.14676 0.923237 6.09986 0.903831 6.06321C0.884426 6.02655 0.856934 5.9996 0.821357 5.98235C0.784702 5.96402 0.74104 5.95486 0.690369 5.95486H0.0273438L0.0273438 5.57806H0.711392C0.822435 5.57806 0.920003 5.60393 1.00409 5.65568C1.08711 5.70743 1.15179 5.78021 1.19815 5.874C1.24451 5.9678 1.26769 6.07776 1.26769 6.2039C1.26769 6.32788 1.24451 6.43677 1.19815 6.53057C1.15179 6.62436 1.08711 6.69767 1.00409 6.7505C0.920003 6.80225 0.822435 6.82812 0.711392 6.82812H0.0273438L0.0273438 6.45133H0.690369Z" fill="#21201C"/>
<path d="M0.190674 7.77699L0.190674 7.40019H1.2402V7.77699H0.190674ZM0.0273438 8.22656L0.0273438 6.95062H0.362091L0.362091 8.22656H0.0273438Z" fill="#21201C"/>
<path d="M0.842528 9.54492V9.16327C0.870558 9.15896 0.895354 9.14548 0.916916 9.12284C0.9374 9.09912 0.953571 9.06732 0.96543 9.02743C0.976211 8.98754 0.981601 8.94064 0.981601 8.88674C0.981601 8.81235 0.972977 8.75467 0.955727 8.7137C0.938478 8.67166 0.912064 8.65063 0.876487 8.65063C0.851691 8.65063 0.831747 8.66249 0.816653 8.68621C0.800482 8.70993 0.789701 8.75683 0.784311 8.8269L0.766522 9.04037C0.753585 9.21502 0.715852 9.3417 0.653323 9.4204C0.589715 9.49802 0.504546 9.53684 0.397815 9.53684C0.31049 9.53684 0.237719 9.5115 0.179502 9.46083C0.120207 9.41016 0.0754663 9.33954 0.0452798 9.24898C0.0150933 9.15842 0 9.05169 0 8.92878C0 8.81019 0.0167104 8.70508 0.0501311 8.61344C0.083552 8.52072 0.130988 8.44741 0.192439 8.3935C0.252812 8.33852 0.323427 8.30833 0.404284 8.30294V8.68459C0.380566 8.68891 0.360082 8.7013 0.342833 8.72179C0.324505 8.74119 0.31049 8.76922 0.300787 8.80588C0.291084 8.84254 0.286233 8.8862 0.286233 8.93687C0.286233 9.00371 0.294319 9.05708 0.31049 9.09697C0.326661 9.13578 0.350918 9.15519 0.383261 9.15519C0.406979 9.15519 0.426385 9.14387 0.441478 9.12123C0.456571 9.09751 0.466813 9.05438 0.472204 8.99185L0.491609 8.75736C0.500234 8.64093 0.518561 8.54713 0.546592 8.47598C0.573544 8.40375 0.610738 8.35146 0.658174 8.31911C0.704532 8.28677 0.763288 8.2706 0.834442 8.2706C0.920689 8.2706 0.996695 8.29647 1.06246 8.34822C1.12714 8.39997 1.17781 8.47274 1.21447 8.56654C1.25005 8.65926 1.26783 8.76815 1.26783 8.89321C1.26783 9.0215 1.25005 9.13416 1.21447 9.23119C1.17889 9.32822 1.1293 9.40423 1.06569 9.45921C1.00101 9.5142 0.926619 9.54277 0.842528 9.54492Z" fill="#21201C"/>
<path d="M30.7322 7.46957C30.7322 7.32403 30.7586 7.19627 30.8114 7.08631C30.8642 6.97742 30.9381 6.89225 31.033 6.8308C31.1278 6.77042 31.2389 6.74023 31.3661 6.74023C31.4933 6.74023 31.6043 6.77042 31.6992 6.8308C31.7941 6.89225 31.8679 6.97742 31.9208 7.08631C31.9736 7.19627 32 7.32403 32 7.46957C32 7.61512 31.9736 7.74233 31.9208 7.85122C31.8679 7.96119 31.7941 8.04636 31.6992 8.10673C31.6043 8.16819 31.4933 8.19891 31.3661 8.19891C31.2389 8.19891 31.1278 8.16819 31.033 8.10673C30.9381 8.04636 30.8642 7.96119 30.8114 7.85122C30.7586 7.74233 30.7322 7.61512 30.7322 7.46957ZM31.0669 7.46957C31.0669 7.54181 31.0788 7.6038 31.1025 7.65555C31.1273 7.70837 31.1618 7.7488 31.206 7.77683C31.2513 7.80486 31.3046 7.81888 31.3661 7.81888C31.4275 7.81888 31.4804 7.80486 31.5246 7.77683C31.5698 7.7488 31.6043 7.70837 31.6281 7.65555C31.6529 7.6038 31.6653 7.54181 31.6653 7.46957C31.6653 7.39734 31.6529 7.33481 31.6281 7.28198C31.6043 7.23023 31.5698 7.19034 31.5246 7.16231C31.4804 7.13428 31.4275 7.12027 31.3661 7.12027C31.3046 7.12027 31.2513 7.13428 31.206 7.16231C31.1618 7.19034 31.1273 7.23023 31.1025 7.28198C31.0788 7.33481 31.0669 7.39734 31.0669 7.46957Z" fill="#21201C"/>
<path d="M31.9727 6.20508V6.58188H30.7598V6.20508H31.9727Z" fill="#21201C"/>
<path d="M31.9727 5.31563C31.9727 5.46117 31.9473 5.58839 31.8967 5.69728C31.8471 5.80725 31.777 5.89242 31.6864 5.95279C31.5959 6.01424 31.4891 6.04497 31.3662 6.04497C31.2444 6.04497 31.1377 6.01424 31.046 5.95279C30.9555 5.89242 30.8849 5.80725 30.8342 5.69728C30.7846 5.58839 30.7598 5.46117 30.7598 5.31563V4.69141H31.9727V5.31563ZM30.9231 5.06497L31.0946 4.89193V5.34474C31.0946 5.4105 31.1053 5.4671 31.1269 5.51454C31.1495 5.56306 31.1813 5.60025 31.2223 5.62612C31.2633 5.652 31.3112 5.66494 31.3662 5.66494C31.4223 5.66494 31.4703 5.652 31.5102 5.62612C31.5511 5.60025 31.5824 5.56306 31.6039 5.51454C31.6266 5.4671 31.6379 5.4105 31.6379 5.34474V4.89193L31.8093 5.06497H30.9231Z" fill="#21201C"/>
<path d="M31.3096 3.62289C31.259 3.62289 31.2158 3.63206 31.1803 3.65038C31.1447 3.66871 31.1167 3.6962 31.0962 3.73286C31.0768 3.76951 31.0671 3.81533 31.0671 3.87032C31.0671 3.92746 31.0768 3.97435 31.0962 4.01101C31.1156 4.04767 31.1431 4.07462 31.1786 4.09187C31.2153 4.1102 31.259 4.11936 31.3096 4.11936H31.9727V4.49616H31.2886C31.1776 4.49616 31.08 4.47028 30.9959 4.41853C30.9129 4.36679 30.8482 4.29401 30.8019 4.20022C30.7555 4.10642 30.7323 3.99646 30.7323 3.87032C30.7323 3.74634 30.7555 3.63745 30.8019 3.54365C30.8482 3.44986 30.9129 3.37654 30.9959 3.32372C31.08 3.27197 31.1776 3.24609 31.2886 3.24609H31.9727V3.62289H31.3096Z" fill="#21201C"/>
<path d="M31.8093 2.29918V2.67598H30.7598V2.29918H31.8093ZM31.9727 1.84961V3.12555H31.6379V1.84961H31.9727Z" fill="#21201C"/>
<path d="M31.1575 0.529297V0.910947C31.1294 0.915259 31.1046 0.928735 31.0831 0.951376C31.0626 0.975094 31.0464 1.0069 31.0346 1.04679C31.0238 1.08668 31.0184 1.13358 31.0184 1.18748C31.0184 1.26187 31.027 1.31955 31.0443 1.36052C31.0615 1.40256 31.0879 1.42359 31.1235 1.42359C31.1483 1.42359 31.1683 1.41173 31.1833 1.38801C31.1995 1.36429 31.2103 1.31739 31.2157 1.24732L31.2335 1.03385C31.2464 0.859197 31.2841 0.73252 31.3467 0.653818C31.4103 0.576195 31.4955 0.537383 31.6022 0.537383C31.6895 0.537383 31.7623 0.562718 31.8205 0.613389C31.8798 0.66406 31.9245 0.734676 31.9547 0.825237C31.9849 0.915798 32 1.02253 32 1.14543C32 1.26403 31.9833 1.36914 31.9499 1.46078C31.9164 1.5535 31.869 1.62681 31.8076 1.68071C31.7472 1.7357 31.6766 1.76589 31.5957 1.77128V1.38963C31.6194 1.38531 31.6399 1.37292 31.6572 1.35243C31.6755 1.33303 31.6895 1.30499 31.6992 1.26834C31.7089 1.23168 31.7138 1.18802 31.7138 1.13735C31.7138 1.07051 31.7057 1.01714 31.6895 0.97725C31.6733 0.938438 31.6491 0.919032 31.6167 0.919032C31.593 0.919032 31.5736 0.930353 31.5585 0.952993C31.5434 0.976711 31.5332 1.01984 31.5278 1.08237L31.5084 1.31685C31.4998 1.43329 31.4814 1.52708 31.4534 1.59824C31.4265 1.67047 31.3893 1.72276 31.3418 1.7551C31.2955 1.78745 31.2367 1.80362 31.1656 1.80362C31.0793 1.80362 31.0033 1.77774 30.9375 1.726C30.8729 1.67425 30.8222 1.60147 30.7855 1.50768C30.75 1.41496 30.7322 1.30607 30.7322 1.18101C30.7322 1.05272 30.75 0.940056 30.7855 0.843026C30.8211 0.745996 30.8707 0.66999 30.9343 0.615006C30.999 0.560023 31.0734 0.531453 31.1575 0.529297Z" fill="#21201C"/>
<path d="M30.7322 15.1395C30.7322 14.994 30.7586 14.8662 30.8114 14.7562C30.8642 14.6473 30.9381 14.5622 31.033 14.5007C31.1278 14.4403 31.2389 14.4102 31.3661 14.4102C31.4933 14.4102 31.6043 14.4403 31.6992 14.5007C31.7941 14.5622 31.8679 14.6473 31.9208 14.7562C31.9736 14.8662 32 14.994 32 15.1395C32 15.285 31.9736 15.4123 31.9208 15.5211C31.8679 15.6311 31.7941 15.7163 31.6992 15.7767C31.6043 15.8381 31.4933 15.8688 31.3661 15.8688C31.2389 15.8688 31.1278 15.8381 31.033 15.7767C30.9381 15.7163 30.8642 15.6311 30.8114 15.5211C30.7586 15.4123 30.7322 15.285 30.7322 15.1395ZM31.0669 15.1395C31.0669 15.2117 31.0788 15.2737 31.1025 15.3255C31.1273 15.3783 31.1618 15.4187 31.206 15.4468C31.2513 15.4748 31.3046 15.4888 31.3661 15.4888C31.4275 15.4888 31.4804 15.4748 31.5246 15.4468C31.5698 15.4187 31.6043 15.3783 31.6281 15.3255C31.6529 15.2737 31.6653 15.2117 31.6653 15.1395C31.6653 15.0673 31.6529 15.0047 31.6281 14.9519C31.6043 14.9002 31.5698 14.8603 31.5246 14.8322C31.4804 14.8042 31.4275 14.7902 31.3661 14.7902C31.3046 14.7902 31.2513 14.8042 31.206 14.8322C31.1618 14.8603 31.1273 14.9002 31.1025 14.9519C31.0788 15.0047 31.0669 15.0673 31.0669 15.1395Z" fill="#21201C"/>
<path d="M31.9727 13.875V14.2518H30.7598V13.875H31.9727Z" fill="#21201C"/>
<path d="M31.9727 12.9856C31.9727 13.1311 31.9473 13.2583 31.8967 13.3672C31.8471 13.4772 31.777 13.5623 31.6864 13.6227C31.5959 13.6842 31.4891 13.7149 31.3662 13.7149C31.2444 13.7149 31.1377 13.6842 31.046 13.6227C30.9555 13.5623 30.8849 13.4772 30.8342 13.3672C30.7846 13.2583 30.7598 13.1311 30.7598 12.9856V12.3613H31.9727V12.9856ZM30.9231 12.7349L31.0946 12.5619V13.0147C31.0946 13.0804 31.1053 13.137 31.1269 13.1845C31.1495 13.233 31.1813 13.2702 31.2223 13.296C31.2633 13.3219 31.3112 13.3349 31.3662 13.3349C31.4223 13.3349 31.4703 13.3219 31.5102 13.296C31.5511 13.2702 31.5824 13.233 31.6039 13.1845C31.6266 13.137 31.6379 13.0804 31.6379 13.0147V12.5619L31.8093 12.7349H30.9231Z" fill="#21201C"/>
<path d="M31.3096 11.2928C31.259 11.2928 31.2158 11.302 31.1803 11.3203C31.1447 11.3386 31.1167 11.3661 31.0962 11.4028C31.0768 11.4394 31.0671 11.4853 31.0671 11.5402C31.0671 11.5974 31.0768 11.6443 31.0962 11.6809C31.1156 11.7176 31.1431 11.7445 31.1786 11.7618C31.2153 11.7801 31.259 11.7893 31.3096 11.7893H31.9727V12.1661H31.2886C31.1776 12.1661 31.08 12.1402 30.9959 12.0885C30.9129 12.0367 30.8482 11.9639 30.8019 11.8701C30.7555 11.7763 30.7323 11.6664 30.7323 11.5402C30.7323 11.4163 30.7555 11.3074 30.8019 11.2136C30.8482 11.1198 30.9129 11.0465 30.9959 10.9936C31.08 10.9419 31.1776 10.916 31.2886 10.916H31.9727V11.2928H31.3096Z" fill="#21201C"/>
<path d="M31.8093 9.9691V10.3459H30.7598V9.9691H31.8093ZM31.9727 9.51953V10.7955H31.6379V9.51953H31.9727Z" fill="#21201C"/>
<path d="M31.1575 8.19922V8.58087C31.1294 8.58518 31.1046 8.59866 31.0831 8.6213C31.0626 8.64502 31.0464 8.67682 31.0346 8.71671C31.0238 8.7566 31.0184 8.8035 31.0184 8.8574C31.0184 8.93179 31.027 8.98947 31.0443 9.03044C31.0615 9.07249 31.0879 9.09351 31.1235 9.09351C31.1483 9.09351 31.1683 9.08165 31.1833 9.05793C31.1995 9.03421 31.2103 8.98731 31.2157 8.91724L31.2335 8.70377C31.2464 8.52912 31.2841 8.40244 31.3467 8.32374C31.4103 8.24612 31.4955 8.2073 31.6022 8.2073C31.6895 8.2073 31.7623 8.23264 31.8205 8.28331C31.8798 8.33398 31.9245 8.4046 31.9547 8.49516C31.9849 8.58572 32 8.69245 32 8.81536C32 8.93395 31.9833 9.03906 31.9499 9.1307C31.9164 9.22342 31.869 9.29673 31.8076 9.35064C31.7472 9.40562 31.6766 9.43581 31.5957 9.4412V9.05955C31.6194 9.05524 31.6399 9.04284 31.6572 9.02235C31.6755 9.00295 31.6895 8.97492 31.6992 8.93826C31.7089 8.90161 31.7138 8.85794 31.7138 8.80727C31.7138 8.74043 31.7057 8.68706 31.6895 8.64717C31.6733 8.60836 31.6491 8.58895 31.6167 8.58895C31.593 8.58895 31.5736 8.60027 31.5585 8.62291C31.5434 8.64663 31.5332 8.68976 31.5278 8.75229L31.5084 8.98678C31.4998 9.10321 31.4814 9.19701 31.4534 9.26816C31.4265 9.34039 31.3893 9.39268 31.3418 9.42503C31.2955 9.45737 31.2367 9.47354 31.1656 9.47354C31.0793 9.47354 31.0033 9.44767 30.9375 9.39592C30.8729 9.34417 30.8222 9.2714 30.7855 9.1776C30.75 9.08488 30.7322 8.97599 30.7322 8.85093C30.7322 8.72264 30.75 8.60998 30.7855 8.51295C30.8211 8.41592 30.8707 8.33991 30.9343 8.28493C30.999 8.22994 31.0734 8.20137 31.1575 8.19922Z" fill="#21201C"/>
<path d="M30.7322 22.8094C30.7322 22.6639 30.7586 22.5361 30.8114 22.4262C30.8642 22.3173 30.9381 22.2321 31.033 22.1706C31.1278 22.1103 31.2389 22.0801 31.3661 22.0801C31.4933 22.0801 31.6043 22.1103 31.6992 22.1706C31.7941 22.2321 31.8679 22.3173 31.9208 22.4262C31.9736 22.5361 32 22.6639 32 22.8094C32 22.955 31.9736 23.0822 31.9208 23.1911C31.8679 23.301 31.7941 23.3862 31.6992 23.4466C31.6043 23.508 31.4933 23.5388 31.3661 23.5388C31.2389 23.5388 31.1278 23.508 31.033 23.4466C30.9381 23.3862 30.8642 23.301 30.8114 23.1911C30.7586 23.0822 30.7322 22.955 30.7322 22.8094ZM31.0669 22.8094C31.0669 22.8817 31.0788 22.9436 31.1025 22.9954C31.1273 23.0482 31.1618 23.0886 31.206 23.1167C31.2513 23.1447 31.3046 23.1587 31.3661 23.1587C31.4275 23.1587 31.4804 23.1447 31.5246 23.1167C31.5698 23.0886 31.6043 23.0482 31.6281 22.9954C31.6529 22.9436 31.6653 22.8817 31.6653 22.8094C31.6653 22.7372 31.6529 22.6747 31.6281 22.6218C31.6043 22.5701 31.5698 22.5302 31.5246 22.5022C31.4804 22.4741 31.4275 22.4601 31.3661 22.4601C31.3046 22.4601 31.2513 22.4741 31.206 22.5022C31.1618 22.5302 31.1273 22.5701 31.1025 22.6218C31.0788 22.6747 31.0669 22.7372 31.0669 22.8094Z" fill="#21201C"/>
<path d="M31.9727 21.5449V21.9217H30.7598V21.5449H31.9727Z" fill="#21201C"/>
<path d="M31.9727 20.6555C31.9727 20.801 31.9473 20.9282 31.8967 21.0371C31.8471 21.1471 31.777 21.2323 31.6864 21.2926C31.5959 21.3541 31.4891 21.3848 31.3662 21.3848C31.2444 21.3848 31.1377 21.3541 31.046 21.2926C30.9555 21.2323 30.8849 21.1471 30.8342 21.0371C30.7846 20.9282 30.7598 20.801 30.7598 20.6555V20.0312H31.9727V20.6555ZM30.9231 20.4048L31.0946 20.2318V20.6846C31.0946 20.7503 31.1053 20.8069 31.1269 20.8544C31.1495 20.9029 31.1813 20.9401 31.2223 20.966C31.2633 20.9918 31.3112 21.0048 31.3662 21.0048C31.4223 21.0048 31.4703 20.9918 31.5102 20.966C31.5511 20.9401 31.5824 20.9029 31.6039 20.8544C31.6266 20.8069 31.6379 20.7503 31.6379 20.6846V20.2318L31.8093 20.4048H30.9231Z" fill="#21201C"/>
<path d="M31.3096 18.9627C31.259 18.9627 31.2158 18.9719 31.1803 18.9902C31.1447 19.0086 31.1167 19.036 31.0962 19.0727C31.0768 19.1094 31.0671 19.1552 31.0671 19.2102C31.0671 19.2673 31.0768 19.3142 31.0962 19.3509C31.1156 19.3875 31.1431 19.4145 31.1786 19.4317C31.2153 19.45 31.259 19.4592 31.3096 19.4592H31.9727V19.836H31.2886C31.1776 19.836 31.08 19.8101 30.9959 19.7584C30.9129 19.7066 30.8482 19.6339 30.8019 19.5401C30.7555 19.4463 30.7323 19.3363 30.7323 19.2102C30.7323 19.0862 30.7555 18.9773 30.8019 18.8835C30.8482 18.7897 30.9129 18.7164 30.9959 18.6636C31.08 18.6118 31.1776 18.5859 31.2886 18.5859H31.9727V18.9627H31.3096Z" fill="#21201C"/>
<path d="M31.8093 17.639V18.0158H30.7598V17.639H31.8093ZM31.9727 17.1895V18.4654H31.6379V17.1895H31.9727Z" fill="#21201C"/>
<path d="M31.1575 15.8691V16.2508C31.1294 16.2551 31.1046 16.2686 31.0831 16.2912C31.0626 16.3149 31.0464 16.3467 31.0346 16.3866C31.0238 16.4265 31.0184 16.4734 31.0184 16.5273C31.0184 16.6017 31.027 16.6594 31.0443 16.7004C31.0615 16.7424 31.0879 16.7634 31.1235 16.7634C31.1483 16.7634 31.1683 16.7516 31.1833 16.7279C31.1995 16.7041 31.2103 16.6572 31.2157 16.5872L31.2335 16.3737C31.2464 16.199 31.2841 16.0724 31.3467 15.9937C31.4103 15.916 31.4955 15.8772 31.6022 15.8772C31.6895 15.8772 31.7623 15.9026 31.8205 15.9532C31.8798 16.0039 31.9245 16.0745 31.9547 16.1651C31.9849 16.2556 32 16.3624 32 16.4853C32 16.6039 31.9833 16.709 31.9499 16.8006C31.9164 16.8933 31.869 16.9667 31.8076 17.0206C31.7472 17.0755 31.6766 17.1057 31.5957 17.1111V16.7295C31.6194 16.7252 31.6399 16.7128 31.6572 16.6923C31.6755 16.6729 31.6895 16.6448 31.6992 16.6082C31.7089 16.5715 31.7138 16.5279 31.7138 16.4772C31.7138 16.4104 31.7057 16.357 31.6895 16.3171C31.6733 16.2783 31.6491 16.2589 31.6167 16.2589C31.593 16.2589 31.5736 16.2702 31.5585 16.2928C31.5434 16.3166 31.5332 16.3597 31.5278 16.4222L31.5084 16.6567C31.4998 16.7731 31.4814 16.8669 31.4534 16.9381C31.4265 17.0103 31.3893 17.0626 31.3418 17.0949C31.2955 17.1273 31.2367 17.1435 31.1656 17.1435C31.0793 17.1435 31.0033 17.1176 30.9375 17.0658C30.8729 17.0141 30.8222 16.9413 30.7855 16.8475C30.75 16.7548 30.7322 16.6459 30.7322 16.5209C30.7322 16.3926 30.75 16.2799 30.7855 16.1829C30.8211 16.0858 30.8707 16.0098 30.9343 15.9549C30.999 15.8999 31.0734 15.8713 31.1575 15.8691Z" fill="#21201C"/>
<path d="M30.7287 30.4793C30.7287 30.3338 30.7552 30.206 30.808 30.0961C30.8608 29.9872 30.9347 29.902 31.0295 29.8406C31.1244 29.7802 31.2355 29.75 31.3627 29.75C31.4899 29.75 31.6009 29.7802 31.6958 29.8406C31.7907 29.902 31.8645 29.9872 31.9173 30.0961C31.9702 30.206 31.9966 30.3338 31.9966 30.4793C31.9966 30.6249 31.9702 30.7521 31.9173 30.861C31.8645 30.971 31.7907 31.0561 31.6958 31.1165C31.6009 31.178 31.4899 31.2087 31.3627 31.2087C31.2355 31.2087 31.1244 31.178 31.0295 31.1165C30.9347 31.0561 30.8608 30.971 30.808 30.861C30.7552 30.7521 30.7287 30.6249 30.7287 30.4793ZM31.0635 30.4793C31.0635 30.5516 31.0754 30.6136 31.0991 30.6653C31.1239 30.7181 31.1584 30.7586 31.2026 30.7866C31.2478 30.8146 31.3012 30.8286 31.3627 30.8286C31.4241 30.8286 31.4769 30.8146 31.5211 30.7866C31.5664 30.7586 31.6009 30.7181 31.6246 30.6653C31.6494 30.6136 31.6618 30.5516 31.6618 30.4793C31.6618 30.4071 31.6494 30.3446 31.6246 30.2917C31.6009 30.24 31.5664 30.2001 31.5211 30.1721C31.4769 30.144 31.4241 30.13 31.3627 30.13C31.3012 30.13 31.2478 30.144 31.2026 30.1721C31.1584 30.2001 31.1239 30.24 31.0991 30.2917C31.0754 30.3446 31.0635 30.4071 31.0635 30.4793Z" fill="#21201C"/>
<path d="M31.9688 29.2148V29.5916H30.7559V29.2148H31.9688Z" fill="#21201C"/>
<path d="M31.9688 28.3254C31.9688 28.4709 31.9434 28.5982 31.8927 28.707C31.8432 28.817 31.7731 28.9022 31.6825 28.9626C31.592 29.024 31.4852 29.0547 31.3623 29.0547C31.2405 29.0547 31.1338 29.024 31.0421 28.9626C30.9516 28.9022 30.881 28.817 30.8303 28.707C30.7807 28.5982 30.7559 28.4709 30.7559 28.3254V27.7012H31.9688V28.3254ZM30.9192 28.0747L31.0906 27.9017V28.3545C31.0906 28.4203 31.1014 28.4769 31.123 28.5243C31.1456 28.5728 31.1774 28.61 31.2184 28.6359C31.2594 28.6618 31.3073 28.6747 31.3623 28.6747C31.4184 28.6747 31.4664 28.6618 31.5062 28.6359C31.5472 28.61 31.5785 28.5728 31.6 28.5243C31.6227 28.4769 31.634 28.4203 31.634 28.3545V27.9017L31.8054 28.0747H30.9192Z" fill="#21201C"/>
<path d="M31.3057 26.6327C31.2551 26.6327 31.2119 26.6418 31.1764 26.6601C31.1408 26.6785 31.1127 26.706 31.0923 26.7426C31.0729 26.7793 31.0632 26.8251 31.0632 26.8801C31.0632 26.9372 31.0729 26.9841 31.0923 27.0208C31.1117 27.0574 31.1392 27.0844 31.1747 27.1016C31.2114 27.12 31.2551 27.1291 31.3057 27.1291H31.9688V27.5059H31.2847C31.1737 27.5059 31.0761 27.48 30.992 27.4283C30.909 27.3766 30.8443 27.3038 30.7979 27.21C30.7516 27.1162 30.7284 27.0062 30.7284 26.8801C30.7284 26.7561 30.7516 26.6472 30.7979 26.5534C30.8443 26.4596 30.909 26.3863 30.992 26.3335C31.0761 26.2817 31.1737 26.2559 31.2847 26.2559H31.9688V26.6327H31.3057Z" fill="#21201C"/>
<path d="M31.8054 25.307V25.6838H30.7559V25.307H31.8054ZM31.9688 24.8574V26.1334H31.634V24.8574H31.9688Z" fill="#21201C"/>
<path d="M31.1541 23.5391V23.9207C31.126 23.925 31.1012 23.9385 31.0797 23.9611C31.0592 23.9849 31.043 24.0167 31.0312 24.0566C31.0204 24.0964 31.015 24.1433 31.015 24.1972C31.015 24.2716 31.0236 24.3293 31.0409 24.3703C31.0581 24.4123 31.0845 24.4334 31.1201 24.4334C31.1449 24.4334 31.1648 24.4215 31.1799 24.3978C31.1961 24.3741 31.2069 24.3272 31.2123 24.2571L31.2301 24.0436C31.243 23.869 31.2807 23.7423 31.3433 23.6636C31.4069 23.586 31.492 23.5471 31.5988 23.5471C31.6861 23.5471 31.7589 23.5725 31.8171 23.6232C31.8764 23.6738 31.9211 23.7444 31.9513 23.835C31.9815 23.9256 31.9966 24.0323 31.9966 24.1552C31.9966 24.2738 31.9799 24.3789 31.9465 24.4705C31.913 24.5633 31.8656 24.6366 31.8041 24.6905C31.7438 24.7455 31.6732 24.7757 31.5923 24.781V24.3994C31.616 24.3951 31.6365 24.3827 31.6537 24.3622C31.6721 24.3428 31.6861 24.3148 31.6958 24.2781C31.7055 24.2414 31.7103 24.1978 31.7103 24.1471C31.7103 24.0803 31.7023 24.0269 31.6861 23.987C31.6699 23.9482 31.6457 23.9288 31.6133 23.9288C31.5896 23.9288 31.5702 23.9401 31.5551 23.9628C31.54 23.9865 31.5298 24.0296 31.5244 24.0921L31.505 24.3266C31.4963 24.4431 31.478 24.5369 31.45 24.608C31.423 24.6802 31.3858 24.7325 31.3384 24.7649C31.2921 24.7972 31.2333 24.8134 31.1621 24.8134C31.0759 24.8134 30.9999 24.7875 30.9341 24.7358C30.8694 24.684 30.8188 24.6112 30.7821 24.5174C30.7465 24.4247 30.7287 24.3158 30.7287 24.1908C30.7287 24.0625 30.7465 23.9498 30.7821 23.8528C30.8177 23.7558 30.8673 23.6798 30.9309 23.6248C30.9956 23.5698 31.07 23.5412 31.1541 23.5391Z" fill="#21201C"/>
<path d="M32 31.6848H31.6184C31.614 31.6568 31.6006 31.632 31.5779 31.6104C31.5542 31.5899 31.5224 31.5738 31.4825 31.5619C31.4426 31.5511 31.3957 31.5457 31.3418 31.5457C31.2674 31.5457 31.2098 31.5544 31.1688 31.5716C31.1267 31.5889 31.1057 31.6153 31.1057 31.6508C31.1057 31.6756 31.1176 31.6956 31.1413 31.7107C31.165 31.7268 31.2119 31.7376 31.282 31.743L31.4955 31.7608C31.6701 31.7737 31.7968 31.8115 31.8755 31.874C31.9531 31.9376 31.9919 32.0228 31.9919 32.1295C31.9919 32.2168 31.9666 32.2896 31.9159 32.3478C31.8652 32.4071 31.7946 32.4519 31.7041 32.4821C31.6135 32.5123 31.5068 32.5273 31.3839 32.5273C31.2653 32.5273 31.1602 32.5106 31.0685 32.4772C30.9758 32.4438 30.9025 32.3964 30.8486 32.3349C30.7936 32.2745 30.7634 32.2039 30.758 32.1231H31.1397C31.144 32.1468 31.1564 32.1673 31.1769 32.1845C31.1963 32.2028 31.2243 32.2168 31.261 32.2266C31.2976 32.2363 31.3413 32.2411 31.392 32.2411C31.4588 32.2411 31.5122 32.233 31.5521 32.2168C31.5909 32.2007 31.6103 32.1764 31.6103 32.1441C31.6103 32.1204 31.599 32.101 31.5763 32.0859C31.5526 32.0708 31.5095 32.0605 31.4469 32.0551L31.2125 32.0357C31.096 32.0271 31.0022 32.0088 30.9311 31.9807C30.8588 31.9538 30.8066 31.9166 30.7742 31.8692C30.7419 31.8228 30.7257 31.764 30.7257 31.6929C30.7257 31.6066 30.7516 31.5306 30.8033 31.4649C30.8551 31.4002 30.9278 31.3495 31.0216 31.3129C31.1143 31.2773 31.2232 31.2595 31.3483 31.2595C31.4766 31.2595 31.5892 31.2773 31.6863 31.3129C31.7833 31.3484 31.8593 31.398 31.9143 31.4616C31.9693 31.5263 31.9978 31.6007 32 31.6848Z" fill="#21201C"/>
</svg>
