<svg width="32" height="32" viewBox="0 0 32 32" fill="none" xmlns="http://www.w3.org/2000/svg">
<path d="M14.7321 3.90342C15.1321 2.67542 16.8695 2.67542 17.2681 3.90342L19.2935 10.1354C19.3806 10.4027 19.5501 10.6357 19.7776 10.8009C20.0051 10.9661 20.279 11.0552 20.5601 11.0554H27.1135C28.4055 11.0554 28.9415 12.7088 27.8975 13.4688L22.5961 17.3194C22.3684 17.485 22.1989 17.7184 22.112 17.9861C22.025 18.2539 22.0251 18.5423 22.1121 18.8101L24.1361 25.0421C24.5361 26.2714 23.1295 27.2928 22.0855 26.5328L16.7841 22.6821C16.5563 22.5165 16.2818 22.4272 16.0001 22.4272C15.7184 22.4272 15.444 22.5165 15.2161 22.6821L9.91479 26.5328C8.87079 27.2928 7.46413 26.2701 7.86413 25.0421L9.88813 18.8101C9.97516 18.5423 9.97522 18.2539 9.88827 17.9861C9.80133 17.7184 9.63185 17.485 9.40413 17.3194L4.10279 13.4688C3.05746 12.7088 3.59613 11.0554 4.88679 11.0554H11.4388C11.7202 11.0555 11.9944 10.9665 12.2222 10.8013C12.4499 10.636 12.6196 10.403 12.7068 10.1354L14.7321 3.90342Z" stroke="#953EA3" stroke-width="2" stroke-linecap="round" stroke-linejoin="round"/>
</svg>
