<svg width="19" height="19" viewBox="0 0 19 19" fill="none" xmlns="http://www.w3.org/2000/svg">
<path d="M14.75 5.875L14.0997 14.9815C14.0728 15.3599 13.9035 15.7141 13.6258 15.9727C13.3482 16.2313 12.9829 16.375 12.6035 16.375H6.3965C6.0171 16.375 5.6518 16.2313 5.37416 15.9727C5.09653 15.7141 4.92719 15.3599 4.90025 14.9815L4.25 5.875M8 8.875V13.375M11 8.875V13.375M11.75 5.875V3.625C11.75 3.42609 11.671 3.23532 11.5303 3.09467C11.3897 2.95402 11.1989 2.875 11 2.875H8C7.80109 2.875 7.61032 2.95402 7.46967 3.09467C7.32902 3.23532 7.25 3.42609 7.25 3.625V5.875M3.5 5.875H15.5" stroke="#D13415" stroke-width="0.75" stroke-linecap="round" stroke-linejoin="round"/>
</svg>
