<svg width="16" height="16" viewBox="0 0 16 16" fill="none" xmlns="http://www.w3.org/2000/svg">
<path d="M11.3333 13.3327H14.6666V11.9993C14.6666 11.5837 14.5371 11.1784 14.2961 10.8398C14.0551 10.5011 13.7145 10.246 13.3218 10.1099C12.9291 9.97369 12.5037 9.96327 12.1048 10.08C11.7059 10.1968 11.3533 10.4349 11.096 10.7613M11.3333 13.3327H4.66665M11.3333 13.3327V11.9993C11.3333 11.562 11.2493 11.144 11.096 10.7613M11.096 10.7613C10.8484 10.1427 10.4211 9.61233 9.86931 9.23876C9.31747 8.8652 8.66637 8.66555 7.99998 8.66555C7.33359 8.66555 6.68249 8.8652 6.13065 9.23876C5.57881 9.61233 5.15155 10.1427 4.90398 10.7613M4.66665 13.3327H1.33331V11.9993C1.33334 11.5837 1.46287 11.1784 1.70389 10.8398C1.9449 10.5011 2.28544 10.246 2.67815 10.1099C3.07086 9.97369 3.49623 9.96327 3.89514 10.08C4.29405 10.1968 4.64667 10.4349 4.90398 10.7613M4.66665 13.3327V11.9993C4.66665 11.562 4.75065 11.144 4.90398 10.7613M9.99998 4.66602C9.99998 5.19645 9.78927 5.70516 9.41419 6.08023C9.03912 6.4553 8.53041 6.66602 7.99998 6.66602C7.46955 6.66602 6.96084 6.4553 6.58577 6.08023C6.21069 5.70516 5.99998 5.19645 5.99998 4.66602C5.99998 4.13558 6.21069 3.62687 6.58577 3.2518C6.96084 2.87673 7.46955 2.66602 7.99998 2.66602C8.53041 2.66602 9.03912 2.87673 9.41419 3.2518C9.78927 3.62687 9.99998 4.13558 9.99998 4.66602ZM14 6.66602C14 7.01964 13.8595 7.35878 13.6095 7.60882C13.3594 7.85887 13.0203 7.99935 12.6666 7.99935C12.313 7.99935 11.9739 7.85887 11.7238 7.60882C11.4738 7.35878 11.3333 7.01964 11.3333 6.66602C11.3333 6.31239 11.4738 5.97326 11.7238 5.72321C11.9739 5.47316 12.313 5.33268 12.6666 5.33268C13.0203 5.33268 13.3594 5.47316 13.6095 5.72321C13.8595 5.97326 14 6.31239 14 6.66602ZM4.66665 6.66602C4.66665 7.01964 4.52617 7.35878 4.27612 7.60882C4.02607 7.85887 3.68693 7.99935 3.33331 7.99935C2.97969 7.99935 2.64055 7.85887 2.3905 7.60882C2.14046 7.35878 1.99998 7.01964 1.99998 6.66602C1.99998 6.31239 2.14046 5.97326 2.3905 5.72321C2.64055 5.47316 2.97969 5.33268 3.33331 5.33268C3.68693 5.33268 4.02607 5.47316 4.27612 5.72321C4.52617 5.97326 4.66665 6.31239 4.66665 6.66602Z" stroke="black" stroke-linecap="round" stroke-linejoin="round"/>
</svg>
