<svg width="52" height="57" viewBox="0 0 52 57" fill="none" xmlns="http://www.w3.org/2000/svg">
<path d="M35.2949 9.89573C43.3059 13.4752 48.8885 21.5129 48.8885 30.8543C48.8885 43.5261 38.616 53.7986 25.9442 53.7986C13.2725 53.7986 3 43.5261 3 30.8543C3 24.7024 5.4212 19.1159 9.36268 14.9959C11.4944 17.9728 14.3205 20.4186 17.6042 22.0966C17.7297 14.3771 21.3497 7.50722 26.9513 3C29.0745 5.84718 31.8899 8.23984 35.2949 9.89573Z" stroke="#EF5F00" stroke-width="4.92166" stroke-linecap="round" stroke-linejoin="round"/>
<path d="M25.9442 45.4563C31.7041 45.4563 36.3734 40.787 36.3734 35.0271C36.3734 29.7338 32.4299 25.3615 27.3206 24.6879C24.5163 27.2036 22.5685 30.6547 21.9681 34.5505C19.7915 34.0184 17.7825 33.0594 16.0346 31.7673C15.6974 32.7929 15.515 33.8887 15.515 35.0271C15.515 40.787 20.1843 45.4563 25.9442 45.4563Z" stroke="#EF5F00" stroke-width="4.92166" stroke-linecap="round" stroke-linejoin="round"/>
</svg>
