<svg width="82" height="80" viewBox="0 0 82 80" fill="none" xmlns="http://www.w3.org/2000/svg">
<mask id="mask0_4282_5040" style="mask-type:alpha" maskUnits="userSpaceOnUse" x="15" y="16" width="51" height="45">
<path d="M35.7051 20.955C37.9691 17.2167 43.3927 17.2167 45.6567 20.955L63.6571 50.6776C66.005 54.5545 63.2137 59.5082 58.6813 59.5082H22.6805C18.1481 59.5082 15.3568 54.5545 17.7046 50.6777L35.7051 20.955Z" fill="#21201C" stroke="#60B3D7" stroke-width="2.96302"/>
</mask>
<g mask="url(#mask0_4282_5040)">
<path d="M29.2852 29.3984L32.3292 31.5619C34.7456 33.2792 38.0273 33.0423 40.1203 30.9994L40.4898 30.6388C41.2719 29.8754 42.3628 29.5088 43.4588 29.641L45.5323 29.8911C47.6756 30.1496 49.7816 29.2627 51.0707 27.5589L51.2918 27.2666" stroke="#21201C" stroke-width="2.96302"/>
</g>
<path d="M35.7046 20.9531C37.9686 17.2147 43.3922 17.2147 45.6562 20.9531L63.6566 50.6757C66.0045 54.5525 63.2132 59.5063 58.6808 59.5063H22.68C18.1476 59.5063 15.3563 54.5525 17.7042 50.6757L35.7046 20.9531Z" stroke="#21201C" stroke-width="2.96302"/>
</svg>
