<svg width="84" height="32" viewBox="0 0 84 32" fill="none" xmlns="http://www.w3.org/2000/svg">
<mask id="mask0_4292_4103" style="mask-type:alpha" maskUnits="userSpaceOnUse" x="6" y="6" width="21" height="19">
<path d="M14.7121 8.46697C15.5564 7.07283 17.5791 7.07283 18.4234 8.46697L25.6233 20.3557C26.4989 21.8015 25.4579 23.6489 23.7677 23.6489H9.36784C7.6776 23.6489 6.63664 21.8015 7.51222 20.3557L14.7121 8.46697Z" fill="#21201C" stroke="#60B3D7" stroke-width="1.5"/>
</mask>
<g mask="url(#mask0_4292_4103)">
<path d="M12.0098 11.7637L13.2273 12.629C14.1939 13.3159 15.5065 13.2212 16.3437 12.404L16.4915 12.2598C16.8043 11.9545 17.2406 11.8078 17.679 11.8607L18.5084 11.9607C19.3657 12.0641 20.2081 11.7094 20.7237 11.0279L20.8121 10.9109" stroke="#21201C" stroke-width="1.5"/>
</g>
<path d="M14.7121 8.46502C15.5564 7.07088 17.5791 7.07088 18.4234 8.46502L25.6233 20.3538C26.4989 21.7995 25.4579 23.6469 23.7677 23.6469H9.36784C7.6776 23.6469 6.63664 21.7995 7.51222 20.3538L14.7121 8.46502Z" stroke="#21201C" stroke-width="1.5"/>
<mask id="mask1_4292_4103" style="mask-type:alpha" maskUnits="userSpaceOnUse" x="31" y="7" width="22" height="19">
<path d="M43.8562 23.5369C43.0119 24.9311 40.9893 24.9311 40.145 23.5369L32.945 11.6482C32.0695 10.2024 33.1104 8.35501 34.8007 8.35501L49.2005 8.35501C50.8908 8.35501 51.9317 10.2024 51.0561 11.6482L43.8562 23.5369Z" fill="#21201C" stroke="#60B3D7" stroke-width="1.5"/>
</mask>
<g mask="url(#mask1_4292_4103)">
<path d="M46.5586 20.2402L45.341 19.3749C44.3745 18.688 43.0619 18.7827 42.2247 19.5999L42.0769 19.7441C41.7641 20.0494 41.3277 20.1961 40.8893 20.1432L40.06 20.0432C39.2027 19.9398 38.3603 20.2945 37.8447 20.976L37.7562 21.093" stroke="#21201C" stroke-width="1.5"/>
</g>
<path d="M43.8562 23.5389C43.0119 24.933 40.9893 24.933 40.145 23.5389L32.945 11.6501C32.0695 10.2044 33.1104 8.35697 34.8007 8.35697L49.2005 8.35697C50.8908 8.35697 51.9317 10.2044 51.0561 11.6501L43.8562 23.5389Z" stroke="#21201C" stroke-width="1.5"/>
<mask id="mask2_4292_4103" style="mask-type:alpha" maskUnits="userSpaceOnUse" x="57" y="6" width="21" height="19">
<path d="M65.5764 8.46697C66.4207 7.07283 68.4434 7.07283 69.2877 8.46697L76.4876 20.3557C77.3632 21.8015 76.3222 23.6489 74.632 23.6489H60.2321C58.5419 23.6489 57.5009 21.8015 58.3765 20.3557L65.5764 8.46697Z" fill="#21201C" stroke="#60B3D7" stroke-width="1.5"/>
</mask>
<g mask="url(#mask2_4292_4103)">
<path d="M62.874 11.7637L64.0916 12.629C65.0581 13.3159 66.3707 13.2212 67.2079 12.404L67.3557 12.2598C67.6686 11.9545 68.1049 11.8078 68.5433 11.8607L69.3726 11.9607C70.2299 12.0641 71.0723 11.7094 71.5879 11.0279L71.6764 10.9109" stroke="#21201C" stroke-width="1.5"/>
</g>
<path d="M65.5764 8.46502C66.4207 7.07088 68.4434 7.07088 69.2877 8.46502L76.4876 20.3538C77.3632 21.7995 76.3222 23.6469 74.632 23.6469H60.2321C58.5419 23.6469 57.5009 21.7995 58.3765 20.3538L65.5764 8.46502Z" stroke="#21201C" stroke-width="1.5"/>
</svg>
