<svg width="25" height="25" viewBox="0 0 25 25" fill="none" xmlns="http://www.w3.org/2000/svg">
<path fill-rule="evenodd" clip-rule="evenodd" d="M20.5484 6.97634C20.7734 7.20138 20.8997 7.50655 20.8997 7.82474C20.8997 8.14294 20.7734 8.44811 20.5484 8.67314L10.9484 18.2731C10.7234 18.4981 10.4182 18.6245 10.1 18.6245C9.7818 18.6245 9.47663 18.4981 9.2516 18.2731L4.4516 13.4731C4.23301 13.2468 4.11206 12.9437 4.11479 12.6291C4.11753 12.3144 4.24373 12.0135 4.46622 11.791C4.68871 11.5685 4.98968 11.4423 5.30432 11.4395C5.61895 11.4368 5.92208 11.5578 6.1484 11.7763L10.1 15.7279L18.8516 6.97634C19.0766 6.75138 19.3818 6.625 19.7 6.625C20.0182 6.625 20.3234 6.75138 20.5484 6.97634Z" fill="#FBFEFC"/>
</svg>
