<svg width="30" height="31" viewBox="0 0 30 31" fill="none" xmlns="http://www.w3.org/2000/svg">
<path d="M10 15.502H10.0125M15 15.502H15.0125M20 15.502H20.0125M26.25 15.502C26.25 16.9793 25.959 18.4422 25.3936 19.8071C24.8283 21.1721 23.9996 22.4122 22.955 23.4569C21.9103 24.5016 20.6701 25.3302 19.3052 25.8956C17.9403 26.461 16.4774 26.752 15 26.752C13.5226 26.752 12.0597 26.461 10.6948 25.8956C9.3299 25.3302 8.08971 24.5016 7.04505 23.4569C6.00039 22.4122 5.17172 21.1721 4.60636 19.8071C4.04099 18.4422 3.75 16.9793 3.75 15.502C3.75 12.5183 4.93526 9.65679 7.04505 7.547C9.15483 5.43722 12.0163 4.25195 15 4.25195C17.9837 4.25195 20.8452 5.43722 22.955 7.547C25.0647 9.65679 26.25 12.5183 26.25 15.502Z" stroke="black" stroke-width="2" stroke-linecap="round" stroke-linejoin="round"/>
</svg>
