<svg width="32" height="32" viewBox="0 0 32 32" fill="none" xmlns="http://www.w3.org/2000/svg">
<path d="M15.9999 28.0003C18.829 28.0003 21.5422 26.8764 23.5426 24.876C24.5346 23.8866 25.3212 22.7109 25.8573 21.4164C26.3935 20.122 26.6685 18.7344 26.6666 17.3333C26.6683 15.9322 26.3931 14.5445 25.8567 13.2501C25.3204 11.9557 24.5335 10.78 23.5413 9.79067C21.4533 7.70267 18.6666 6.66667 15.9813 4C12.6666 6.66667 11.9999 10.6667 11.9999 13.3333C9.33328 12 8.45728 9.79067 8.45728 9.79067C6.45684 11.7911 5.33301 14.5043 5.33301 17.3333C5.33301 20.1624 6.45684 22.8756 8.45728 24.876C10.4577 26.8764 13.1709 28.0003 15.9999 28.0003Z" fill="#F76B15" stroke="#FDFDFC" stroke-linecap="round" stroke-linejoin="round"/>
<path d="M14.8369 22.4929C14.2083 22.3017 13.6365 21.9587 13.172 21.494C12.3907 20.714 12 19.69 12 18.666H14.6667L16.02 14.666C16.677 14.6692 17.3231 14.8341 17.9012 15.1463C18.4794 15.4584 18.9717 15.9082 19.3347 16.4558C19.6978 17.0034 19.9203 17.632 19.9827 18.286C20.0451 18.9401 19.9455 19.5994 19.6925 20.2058C19.4396 20.8122 19.0412 21.3469 18.5326 21.7628C18.0239 22.1786 17.4206 22.4628 16.7761 22.5901C16.1315 22.7175 15.4655 22.6841 14.8369 22.4929Z" stroke="#FDFDFC" stroke-linecap="round" stroke-linejoin="round"/>
</svg>
