<svg width="16" height="16" viewBox="0 0 16 16" fill="none" xmlns="http://www.w3.org/2000/svg">
<path d="M7.33333 10.668L4.66667 8.0013M4.66667 8.0013L7.33333 5.33464M4.66667 8.0013H14M10.6667 10.668V11.3346C10.6667 11.8651 10.456 12.3738 10.0809 12.7488C9.70581 13.1239 9.1971 13.3346 8.66667 13.3346H4C3.46957 13.3346 2.96086 13.1239 2.58579 12.7488C2.21071 12.3738 2 11.8651 2 11.3346V4.66797C2 4.13754 2.21071 3.62883 2.58579 3.25376C2.96086 2.87868 3.46957 2.66797 4 2.66797H8.66667C9.1971 2.66797 9.70581 2.87868 10.0809 3.25376C10.456 3.62883 10.6667 4.13754 10.6667 4.66797V5.33464" stroke="#CE2C31" stroke-width="1.33333" stroke-linecap="round" stroke-linejoin="round"/>
</svg>
