<svg width="28" height="28" viewBox="0 0 28 28" fill="none" xmlns="http://www.w3.org/2000/svg">
<path d="M12.6708 18.0039L8.42078 13.7539M8.42078 13.7539L12.6708 9.50391M8.42078 13.7539H23.2958M17.9833 18.0039V19.0664C17.9833 19.9118 17.6475 20.7225 17.0497 21.3203C16.4519 21.9181 15.6412 22.2539 14.7958 22.2539H7.35828C6.5129 22.2539 5.70215 21.9181 5.10437 21.3203C4.5066 20.7225 4.17078 19.9118 4.17078 19.0664V8.44141C4.17078 7.59603 4.5066 6.78528 5.10437 6.1875C5.70215 5.58973 6.5129 5.25391 7.35828 5.25391H14.7958C15.6412 5.25391 16.4519 5.58973 17.0497 6.1875C17.6475 6.78528 17.9833 7.59603 17.9833 8.44141V9.50391" stroke="black" stroke-linecap="round" stroke-linejoin="round"/>
</svg>
