<svg width="16" height="16" viewBox="0 0 16 16" fill="none" xmlns="http://www.w3.org/2000/svg">
<path d="M2 2.00141V5.75141H2.4365M2.4365 5.75141C2.93439 4.52001 3.82676 3.48859 4.97377 2.81881C6.12078 2.14902 7.4576 1.87872 8.77473 2.05027C10.0919 2.22181 11.3148 2.82551 12.252 3.76674C13.1892 4.70798 13.7876 5.93356 13.9535 7.25141M2.4365 5.75141H5.75M14 14.0014V10.2514H13.5643M13.5643 10.2514C13.0656 11.4821 12.173 12.5127 11.0261 13.1819C9.87923 13.8511 8.5428 14.121 7.22608 13.9496C5.90935 13.7781 4.68665 13.1748 3.7494 12.2342C2.81215 11.2936 2.21327 10.0687 2.0465 8.75141M13.5643 10.2514H10.25" stroke="black" stroke-width="1.5" stroke-linecap="round" stroke-linejoin="round"/>
</svg>
